<svg xmlns="http://www.w3.org/2000/svg" xmlns:xlink="http://www.w3.org/1999/xlink" viewBox="0 0 65.14 49.98"><defs><clipPath id="clip-path"><circle cx="47.4" cy="26.18" r="14.28" fill="none"/></clipPath></defs><g id="Layer_2" data-name="Layer 2"><g id="Layer_1-2" data-name="Layer 1"><path d="M0,6.32H47.53a0,0,0,0,1,0,0V39.69a.78.78,0,0,1-.78.78H.78A.78.78,0,0,1,0,39.69V6.32A0,0,0,0,1,0,6.32Z" fill="#f4f4f4"/><path d="M.83,0H46.7a.83.83,0,0,1,.83.83V7.11a0,0,0,0,1,0,0H0a0,0,0,0,1,0,0V.83A.83.83,0,0,1,.83,0Z" fill="#4c4d5f"/><circle cx="3.68" cy="3.56" r="1.34" fill="#f2858c"/><circle cx="7.93" cy="3.56" r="1.34" fill="#b8d7d9"/><path d="M46.75,15.9a14.27,14.27,0,0,0-9.9,24.56h9.9a.78.78,0,0,0,.78-.77V15.92Z" fill="#4c4d5f" opacity="0.15"/><circle cx="47.4" cy="26.18" r="14.28" fill="#b8d7d9"/><ellipse cx="58.18" cy="6.4" rx="3.5" ry="3.54" fill="#feca71"/><circle cx="63.88" cy="11.9" r="1.26" fill="#feca71"/><g clip-path="url(#clip-path)"><path d="M57.5,27.46l-1-5.09a3.94,3.94,0,0,0-2.73-3l-2.54,9-4.48.38L43.05,26.3l2.59-9.21a3.92,3.92,0,0,0-3.77,1.17l-3.51,3.82a4.61,4.61,0,0,0-1.08,4.29l2.16,5.27a4.65,4.65,0,0,0,2.05,2.77L36.35,47.16l10,2.82,2-13.63a4.63,4.63,0,0,0,3.19-1.3l4.59-3.37A4.65,4.65,0,0,0,57.5,27.46Z" fill="#fff"/></g><polygon points="43.05 26.3 43.05 26.3 46.41 30.18 51.22 28.38 51.22 28.38 46.74 28.76 43.05 26.3" fill="#b8d7d9" opacity="0.47"/><rect x="2.34" y="16.18" width="20.03" height="2.12" fill="#4c4d5f" opacity="0.15"/><rect x="2.34" y="11.9" width="20.03" height="2.12" fill="#4c4d5f" opacity="0.15"/><rect x="2.34" y="20.45" width="10.73" height="2.12" fill="#4c4d5f" opacity="0.15"/><rect x="2.34" y="26.78" width="22.35" height="9.16" fill="#4c4d5f" opacity="0.15"/></g></g></svg>