<svg xmlns="http://www.w3.org/2000/svg" viewBox="0 0 63.47 46.93"><g id="Layer_2" data-name="Layer 2"><g id="Layer_1-2" data-name="Layer 1"><path d="M31.66,46.93a4.26,4.26,0,0,1-1.41-.24c-6.05-1.9-10.71-6.38-13.47-13a41.47,41.47,0,0,1-2.88-16,4.29,4.29,0,0,1,3.1-4A39.9,39.9,0,0,0,28.93,8.41a4.26,4.26,0,0,1,.85-.55,4.43,4.43,0,0,1,1.83-.43h.13a4.38,4.38,0,0,1,1.82.43,4.13,4.13,0,0,1,.85.55,40.34,40.34,0,0,0,11.93,5.36,4.31,4.31,0,0,1,3.11,4,41.69,41.69,0,0,1-2.88,16c-2.76,6.6-7.42,11.08-13.48,13a4.22,4.22,0,0,1-1.41.24Z" fill="#e2f3f4" fill-rule="evenodd"/><path d="M31.66,11.16h0a.71.71,0,0,1,.24.06l.14.11a42.78,42.78,0,0,0,13.24,6,.56.56,0,0,1,.41.51,38.07,38.07,0,0,1-2.6,14.38c-1.95,4.67-5.35,9.08-11.23,10.89a.54.54,0,0,1-.22,0,.57.57,0,0,1-.22,0c-5.87-1.81-9.27-6.22-11.23-10.89a38,38,0,0,1-2.59-14.38.54.54,0,0,1,.41-.51,42.65,42.65,0,0,0,13.23-6,.58.58,0,0,1,.15-.11.71.71,0,0,1,.24-.06Z" fill="#b8d7d9" fill-rule="evenodd"/><rect x="27.77" y="25.3" width="14.7" height="2.31" transform="translate(-8.41 32.58) rotate(-45)" fill="#fff"/><rect x="23.93" y="27.33" width="8.93" height="2.31" transform="translate(28.34 68.71) rotate(-135)" fill="#fff"/><polyline points="12.85 21.55 5.19 21.55 3.2 16.74" fill="none" stroke="#feca71" stroke-miterlimit="10" stroke-width="0.94"/><circle cx="2.69" cy="14.95" r="2.21" fill="none" stroke="#feca71" stroke-miterlimit="10" stroke-width="0.94"/><polyline points="50.62 21.55 58.28 21.55 60.28 16.74" fill="none" stroke="#feca71" stroke-miterlimit="10" stroke-width="0.94"/><circle cx="60.79" cy="14.95" r="2.21" fill="none" stroke="#feca71" stroke-miterlimit="10" stroke-width="0.94"/><polyline points="15.68 36.81 8.02 36.81 6.02 41.62" fill="none" stroke="#feca71" stroke-miterlimit="10" stroke-width="0.94"/><circle cx="5.51" cy="43.41" r="2.21" fill="none" stroke="#feca71" stroke-miterlimit="10" stroke-width="0.94"/><polyline points="48.23 36.41 55.89 36.41 57.89 41.21" fill="none" stroke="#feca71" stroke-miterlimit="10" stroke-width="0.94"/><circle cx="58.4" cy="43" r="2.21" fill="none" stroke="#feca71" stroke-miterlimit="10" stroke-width="0.94"/><line x1="49.79" y1="29.39" x2="56.67" y2="29.39" fill="none" stroke="#feca71" stroke-miterlimit="10" stroke-width="0.94"/><circle cx="58.57" cy="29.39" r="2.21" fill="none" stroke="#feca71" stroke-miterlimit="10" stroke-width="0.94"/><line x1="13.75" y1="29.39" x2="6.87" y2="29.39" fill="none" stroke="#feca71" stroke-miterlimit="10" stroke-width="0.94"/><circle cx="4.98" cy="29.39" r="2.21" fill="none" stroke="#feca71" stroke-miterlimit="10" stroke-width="0.94"/><ellipse cx="46.13" cy="4.3" rx="4.25" ry="4.3" fill="#f2858c"/><circle cx="53.05" cy="10.99" r="1.53" fill="#f2858c"/></g></g></svg>