<svg xmlns="http://www.w3.org/2000/svg" viewBox="0 0 51.63 47.21"><g id="Layer_2" data-name="Layer 2"><g id="Layer_1-2" data-name="Layer 1"><rect x="5.05" y="16.45" width="32.04" height="27.54" rx="2.92" transform="translate(-7.59 7.07) rotate(-16.2)" fill="#f2858c"/><rect x="6.73" y="22.25" width="3.88" height="2.46" transform="translate(-6.2 3.35) rotate(-16.2)" fill="#e57383"/><rect x="12.76" y="20.5" width="3.88" height="2.46" transform="translate(-5.48 4.96) rotate(-16.2)" fill="#e57383"/><rect x="18.79" y="18.75" width="3.88" height="2.46" transform="translate(-4.75 6.58) rotate(-16.2)" fill="#e57383"/><rect x="24.82" y="16.99" width="3.88" height="2.46" transform="translate(-4.02 8.19) rotate(-16.2)" fill="#e57383"/><rect x="12.12" y="41" width="3.88" height="2.46" transform="translate(-11.22 5.6) rotate(-16.2)" fill="#e57383"/><rect x="18.15" y="39.25" width="3.88" height="2.46" transform="matrix(0.96, -0.28, 0.28, 0.96, -10.49, 7.21)" fill="#e57383"/><rect x="24.18" y="37.5" width="3.88" height="2.46" transform="translate(-9.77 8.82) rotate(-16.2)" fill="#e57383"/><rect x="30.21" y="35.75" width="3.88" height="2.46" transform="translate(-9.04 10.43) rotate(-16.2)" fill="#e57383"/><rect x="7.29" y="22.09" width="3.88" height="2.46" transform="translate(-6.14 3.5) rotate(-16.2)" fill="#fff"/><rect x="13.32" y="20.34" width="3.88" height="2.46" transform="translate(-5.41 5.11) rotate(-16.2)" fill="#fff"/><rect x="19.35" y="18.58" width="3.88" height="2.46" transform="translate(-4.68 6.72) rotate(-16.2)" fill="#fff"/><rect x="25.38" y="16.83" width="3.88" height="2.46" transform="translate(-3.95 8.34) rotate(-16.2)" fill="#fff"/><rect x="5.02" y="23.71" width="32.04" height="12.83" transform="translate(-7.57 7.06) rotate(-16.2)" fill="#fcdbd5"/><rect x="12.73" y="40.83" width="3.88" height="2.46" transform="translate(-11.15 5.76) rotate(-16.2)" fill="#fff"/><rect x="18.76" y="39.07" width="3.88" height="2.46" transform="translate(-10.42 7.37) rotate(-16.2)" fill="#fff"/><rect x="24.79" y="37.32" width="3.88" height="2.46" transform="translate(-9.69 8.99) rotate(-16.2)" fill="#fff"/><rect x="30.82" y="35.57" width="3.88" height="2.46" transform="translate(-8.96 10.6) rotate(-16.2)" fill="#fff"/><path d="M25.72,28.76l-5.56,5.79a.44.44,0,0,1-.75-.18l-2.24-7.71a.45.45,0,0,1,.54-.57L25.5,28A.45.45,0,0,1,25.72,28.76Z" fill="#f2858c"/><rect y="33.56" width="4.75" height="13.44" fill="#b8d7d9"/><path d="M51.09,34.61a7.94,7.94,0,0,1-14.8,5.73" fill="#feca71"/><circle cx="47.6" cy="19.81" r="3.01" fill="#f6a48b"/><line x1="41.89" x2="41.89" y2="12.62" fill="none" stroke="#c9c9c9" stroke-miterlimit="10" stroke-width="0.47"/><line x1="48.2" y1="6.31" x2="35.58" y2="6.31" fill="none" stroke="#c9c9c9" stroke-miterlimit="10" stroke-width="0.47"/><line x1="46.35" y1="1.85" x2="37.43" y2="10.77" fill="none" stroke="#c9c9c9" stroke-miterlimit="10" stroke-width="0.47"/><line x1="46.35" y1="10.77" x2="37.43" y2="1.85" fill="none" stroke="#c9c9c9" stroke-miterlimit="10" stroke-width="0.47"/><polygon points="39.78 30.98 50.83 29.57 46.04 35.84 39.78 30.98" fill="none" stroke="#b8d7d9" stroke-linecap="round" stroke-linejoin="round" stroke-width="0.47"/></g></g></svg>