<svg xmlns="http://www.w3.org/2000/svg" viewBox="0 0 58.15 42"><g id="Layer_2" data-name="Layer 2"><g id="Layer_1-2" data-name="Layer 1"><path d="M29.6,23c-1.31-1.9-1.07-4.47-.53-6.72S30.4,11.68,30,9.4c-.62-3.53-4.11-6.06-7.67-6.47S15.2,3.85,12.1,5.65C5.45,9.51,0,16.36,0,24.05,0,32.17,6.58,39.5,14.47,41.42S31,40.31,36.77,34.6a11.39,11.39,0,0,0,2.87-4.08C42.4,23,32.5,27.15,29.6,23Z" fill="#f4f4f4"/><line x1="43.62" x2="43.62" y2="11.18" fill="none" stroke="#feca71" stroke-miterlimit="10" stroke-width="0.47"/><line x1="49.21" y1="5.59" x2="38.03" y2="5.59" fill="none" stroke="#feca71" stroke-miterlimit="10" stroke-width="0.47"/><line x1="47.57" y1="1.64" x2="39.67" y2="9.55" fill="none" stroke="#feca71" stroke-miterlimit="10" stroke-width="0.47"/><line x1="47.57" y1="9.55" x2="39.67" y2="1.64" fill="none" stroke="#feca71" stroke-miterlimit="10" stroke-width="0.47"/><path d="M44,19,24,21.39v0a8.21,8.21,0,1,0,7.85,13.11,5.85,5.85,0,0,1,3.92-2.21h0a5.93,5.93,0,0,1,4.4,1.25A8.21,8.21,0,0,0,53.4,26.23,8.39,8.39,0,0,0,44,19Z" fill="#fcdbd5"/><rect x="33.98" y="13.21" width="0.79" height="6.89" transform="translate(-1.77 4.3) rotate(-6.97)" fill="#f2858c"/><circle cx="42.67" cy="27.39" r="1.95" fill="none" stroke="#333445" stroke-miterlimit="10" stroke-width="0.47"/><circle cx="48.47" cy="26.68" r="1.95" fill="none" stroke="#333445" stroke-miterlimit="10" stroke-width="0.47"/><rect x="23.55" y="25.72" width="2.48" height="7.54" rx="1.24" transform="translate(-3.4 3.23) rotate(-6.97)" fill="#f2858c"/><rect x="23.55" y="25.72" width="2.48" height="7.54" rx="1.24" transform="translate(51.05 1.3) rotate(83.03)" fill="#f2858c"/><path d="M33.7,18h1.93A1.34,1.34,0,0,1,37,19.33v.76a0,0,0,0,1,0,0H32.36a0,0,0,0,1,0,0v-.76A1.34,1.34,0,0,1,33.7,18Z" transform="translate(-2.05 4.35) rotate(-6.97)" fill="#f2858c"/><ellipse cx="52.34" cy="15.96" rx="2.92" ry="2.96" fill="#b8d7d9"/><circle cx="57.1" cy="20.56" r="1.05" fill="#b8d7d9"/></g></g></svg>