<svg xmlns="http://www.w3.org/2000/svg" xmlns:xlink="http://www.w3.org/1999/xlink" viewBox="0 0 44.74 45.79"><defs><clipPath id="clip-path"><polygon points="24.1 26.49 24.1 17.91 15.34 17.91 15.34 26.49 15.34 35.07 15.34 35.26 32.49 35.26 32.49 26.49 24.1 26.49" fill="none"/></clipPath></defs><g id="Layer_2" data-name="Layer 2"><g id="Layer_1-2" data-name="Layer 1"><rect x="23.26" width="0.85" height="17.92" fill="#f2b9b0"/><path d="M38.45,11.33c-4.78-1.82-9.56,1.82-14.34,0V2.23c4.78,1.82,9.56-1.82,14.34,0Z" fill="#fcdbd5"/><path d="M1,16.37A19.29,19.29,0,0,0,2.54,32a19.33,19.33,0,0,0,14.31,9.11c4.88.54,12.08-1.78,11.6-7.92-.28-3.42-3.23-5.93-6.05-7.87-3-2.11-6.61-4.46-7.58-8.24-.73-2.85-.12-6.88-2.91-8.76a5,5,0,0,0-4.76-.2,9.64,9.64,0,0,0-3.67,3.28A18,18,0,0,0,1,16.37Z" fill="#f4f4f4"/><ellipse cx="10.89" cy="5.29" rx="3.4" ry="3.44" fill="#feca71"/><circle cx="16.42" cy="10.63" r="1.22" fill="#feca71"/><line x1="41.07" y1="14.24" x2="41.07" y2="21.59" fill="none" stroke="#f2b9b0" stroke-miterlimit="10" stroke-width="0.47"/><line x1="44.74" y1="17.92" x2="37.4" y2="17.92" fill="none" stroke="#f2b9b0" stroke-miterlimit="10" stroke-width="0.47"/><line x1="43.66" y1="15.32" x2="38.47" y2="20.51" fill="none" stroke="#f2b9b0" stroke-miterlimit="10" stroke-width="0.47"/><line x1="43.66" y1="20.51" x2="38.47" y2="15.32" fill="none" stroke="#f2b9b0" stroke-miterlimit="10" stroke-width="0.47"/><polygon points="32.68 26.49 32.68 17.91 23.91 17.91 23.91 26.49 23.91 35.07 23.91 35.26 41.07 35.26 41.07 26.49 32.68 26.49" fill="#e2f3f4"/><polygon points="24.1 26.49 24.1 17.91 15.34 17.91 15.34 26.49 15.34 35.07 15.34 35.26 32.49 35.26 32.49 26.49 24.1 26.49" fill="#b8d7d9"/><polygon points="24.1 19.27 32.68 19.27 32.68 19.84 24.1 20.83 24.1 19.27" fill="#91b3b5" opacity="0.44"/><polygon points="32.49 26.51 41.07 26.51 41.07 27.08 32.49 28.07 32.49 26.51" fill="#91b3b5" opacity="0.44"/><g clip-path="url(#clip-path)"><line x1="19.67" y1="12.41" x2="37.66" y2="33.65" fill="none" stroke="#fff" stroke-miterlimit="10" stroke-width="0.24"/><line x1="18.58" y1="13.34" x2="36.56" y2="34.58" fill="none" stroke="#fff" stroke-miterlimit="10" stroke-width="0.24"/><line x1="17.48" y1="14.26" x2="35.47" y2="35.51" fill="none" stroke="#fff" stroke-miterlimit="10" stroke-width="0.24"/><line x1="16.38" y1="15.19" x2="34.37" y2="36.44" fill="none" stroke="#fff" stroke-miterlimit="10" stroke-width="0.24"/><line x1="15.29" y1="16.12" x2="33.28" y2="37.37" fill="none" stroke="#fff" stroke-miterlimit="10" stroke-width="0.24"/><line x1="14.19" y1="17.05" x2="32.18" y2="38.29" fill="none" stroke="#fff" stroke-miterlimit="10" stroke-width="0.24"/><line x1="13.1" y1="17.98" x2="31.08" y2="39.22" fill="none" stroke="#fff" stroke-miterlimit="10" stroke-width="0.24"/><line x1="12" y1="18.9" x2="29.99" y2="40.15" fill="none" stroke="#fff" stroke-miterlimit="10" stroke-width="0.24"/><line x1="10.9" y1="19.83" x2="28.89" y2="41.08" fill="none" stroke="#fff" stroke-miterlimit="10" stroke-width="0.24"/><line x1="9.81" y1="20.76" x2="27.8" y2="42.01" fill="none" stroke="#fff" stroke-miterlimit="10" stroke-width="0.24"/><line x1="8.71" y1="21.69" x2="26.7" y2="42.93" fill="none" stroke="#fff" stroke-miterlimit="10" stroke-width="0.24"/><line x1="7.62" y1="22.62" x2="25.6" y2="43.86" fill="none" stroke="#fff" stroke-miterlimit="10" stroke-width="0.24"/><line x1="6.52" y1="23.55" x2="24.51" y2="44.79" fill="none" stroke="#fff" stroke-miterlimit="10" stroke-width="0.24"/><line x1="5.42" y1="24.47" x2="23.41" y2="45.72" fill="none" stroke="#fff" stroke-miterlimit="10" stroke-width="0.24"/></g><rect x="23.26" y="17.92" width="10.43" height="1.36" fill="#e2f3f4"/><rect x="31.57" y="25.16" width="10.43" height="1.36" fill="#e2f3f4"/><path d="M24.88,11.58c4.52,1.2,9-2,13.57-.25V2.53a3.7,3.7,0,0,0-1.56,1A13.47,13.47,0,0,0,35.3,5.56a15.52,15.52,0,0,1-4.93,4.78A9.3,9.3,0,0,1,24.88,11.58Z" fill="#f2858c"/></g></g></svg>