<svg xmlns="http://www.w3.org/2000/svg" viewBox="0 0 45.46 47.54"><g id="Layer_2" data-name="Layer 2"><g id="Layer_1-2" data-name="Layer 1"><path d="M.06,31.11a18.16,18.16,0,0,0,7,13,18.19,18.19,0,0,0,15.74,2.73c4.43-1.3,9.85-5.93,7.2-11.09-1.48-2.87-5-4-8.1-4.64-3.42-.73-7.36-1.48-9.58-4.41-1.67-2.21-2.59-5.94-5.7-6.56a4.66,4.66,0,0,0-4.21,1.55,9.2,9.2,0,0,0-2,4.18A16.87,16.87,0,0,0,.06,31.11Z" fill="#f4f4f4"/><path d="M42.4,45.87,36.19,25.09a1.91,1.91,0,0,0-.35-.68l-4.47-5.86a1.11,1.11,0,0,0-.48-.35l-.76-.29a1.08,1.08,0,0,0-.73,0L16.5,22.17s0,2,2.41,1.93l.27.9-2.06.06A2.18,2.18,0,0,0,19.3,27.2c2.11,0,8.61,3.35,8.61,3.35l-7.82.81a.26.26,0,0,0-.22.35,2.77,2.77,0,0,0,2.75,1.84c2.37,0,3,0,3,0s.57,4.77,4.07,6.33l1.14,6" fill="#f6a48b"/><rect x="10.28" y="5.44" width="19.17" height="30.43" rx="3.94" fill="#91b3b5"/><rect x="12.19" y="7.83" width="15.36" height="25.78" rx="2.21" fill="#fff"/><path d="M20.69,7.11h-6l.57,1.58A2,2,0,0,0,17.15,10h5.43a2,2,0,0,0,1.87-1.31L25,7.11Z" fill="#91b3b5"/><ellipse cx="30.99" cy="2.78" rx="2.75" ry="2.78" fill="#feca71"/><circle cx="35.46" cy="7.11" r="0.99" fill="#feca71"/><path d="M27.55,26.46l-3.69-1.6-3.34-1.24s.37,4.15,4.32,4.77L27,30.08a13.83,13.83,0,0,0-.21,2.5,3,3,0,0,0,.79-2Z" fill="#f4f4f4"/><circle cx="19.87" cy="20.94" r="5.15" fill="#f2858c"/><path d="M35.19,29.39l-8.25-5.93a1.88,1.88,0,0,0-.88-.32l-5.34-.41a.29.29,0,0,0-.32.33c.08.92,1,3.36,5.46,4.23l2,1.76S26.54,35.77,32,37.44" fill="#f6a48b"/><path d="M28.41,45.9h0a3.6,3.6,0,0,1,2.18-5l7.3-2.23a3.57,3.57,0,0,1,4.22,1.75l3.35,6.32-16.66,0Z" fill="#feca71"/><path d="M27.87,29.05s-.94,4.74,2,7.25" fill="#f6a48b" stroke="#b4634d" stroke-miterlimit="10" stroke-width="0.24"/><line x1="29.45" y1="25.27" x2="34.16" y2="28.1" fill="#f6a48b" stroke="#b4634d" stroke-miterlimit="10" stroke-width="0.24"/></g></g></svg>