<svg xmlns="http://www.w3.org/2000/svg" xmlns:xlink="http://www.w3.org/1999/xlink" viewBox="0 0 1254.36 1246.48"><defs><clipPath id="clip-path" transform="translate(72.34)"><path d="M64,239.68S-45.37,353.73,21.87,415.48s168.61-2.84,168.61-2.84-91.72-6.45-113.54-53.17S60.92,258.48,64,239.68Z" fill="none"/></clipPath><clipPath id="clip-path-2" transform="translate(72.34)"><path d="M1045.37,369.38a79,79,0,0,0-33.29,8.2c-32.39,16.44-54.57,52.13-23.35,89.83,39.12,47.25,152.88,17,177.22-59.64s-14.45-104.84-32.88-108.34-38.93,15.16-49.2,43.81C1076,365.23,1056.22,369,1045.37,369.38Z" fill="#b8d8da"/></clipPath><clipPath id="clip-path-3" transform="translate(72.34)"><rect x="427.89" y="672.39" width="202.64" height="83.55" fill="none"/></clipPath><linearGradient id="linear-gradient" x1="652.14" y1="820.82" x2="652.14" y2="428.08" gradientUnits="userSpaceOnUse"><stop offset="0" stop-color="#ffca72"/><stop offset="1" stop-color="#ffca72" stop-opacity="0"/></linearGradient></defs><g style="isolation:isolate"><g id="Layer_2" data-name="Layer 2"><g id="Layer_1-2" data-name="Layer 1"><path d="M63.54,239.75s-109,114.43-41.51,176,168.6-3.43,168.6-3.43S98.89,406.15,76.9,359.5,60.53,258.57,63.54,239.75Z" transform="translate(72.34)" fill="#ffca72"/><g clip-path="url(#clip-path)"><line x1="1.04" y1="353.51" x2="165.22" y2="510.94" fill="none" stroke="#f1858c" stroke-miterlimit="10" stroke-width="3"/><line x1="33.79" y1="319.36" x2="197.97" y2="476.79" fill="none" stroke="#f1858c" stroke-miterlimit="10" stroke-width="3"/><line x1="66.53" y1="285.21" x2="230.72" y2="442.64" fill="none" stroke="#f1858c" stroke-miterlimit="10" stroke-width="3"/><line x1="99.28" y1="251.06" x2="263.46" y2="408.49" fill="none" stroke="#f1858c" stroke-miterlimit="10" stroke-width="3"/><line x1="132.03" y1="216.9" x2="296.21" y2="374.34" fill="none" stroke="#f1858c" stroke-miterlimit="10" stroke-width="3"/><line x1="158.28" y1="231.99" x2="17.21" y2="379.11" fill="none" stroke="#f1858c" stroke-miterlimit="10" stroke-width="3"/><line x1="190.19" y1="262.58" x2="49.11" y2="409.7" fill="none" stroke="#f1858c" stroke-miterlimit="10" stroke-width="3"/><line x1="222.09" y1="293.17" x2="81.01" y2="440.29" fill="none" stroke="#f1858c" stroke-miterlimit="10" stroke-width="3"/><line x1="253.99" y1="323.76" x2="112.91" y2="470.88" fill="none" stroke="#f1858c" stroke-miterlimit="10" stroke-width="3"/><line x1="285.89" y1="354.35" x2="144.81" y2="501.47" fill="none" stroke="#f1858c" stroke-miterlimit="10" stroke-width="3"/></g><polyline points="723.82 511.33 679.6 511.33 704.17 701.87 907.63 526.39 839.65 518.09" fill="#f1858c"/><path d="M366.29,403.77c-3.44-3.53-34.09,13.29-37.24,15a204.71,204.71,0,0,0-74.56,68.78c-25.43,39.11-29.69,84.92-52.16,125.13-23.76,42.54-57.63,79-76.83,124.17C92.7,814,112.81,910.49,173.67,968.1c19.27,18.24,56.2,39.88,83.44,25.93,14.37-7.37,25.62-27.46,35.12-40.66,24.69-34.28,42.78-74,59.91-112.36,44.31-99.31,81.64-204.63,102.64-311.51,5-25.69,9.21-51.79,9.91-78C464.69,451.49,408.66,447.62,366.29,403.77Z" transform="translate(72.34)" fill="#f1858c"/><path d="M308.36,928.78c-22.44-6.49-43.07-15.67-58.1-32.89-24.16-27.69-26-67.87-25.55-104.62.61-46.75,3-93.45,5.36-140.14,2.2-43.37,4.51-87.31,17.86-128.63s39.24-80.4,77.87-100.21q-2.78.72-5.53,1.48a205.33,205.33,0,0,0-65.78,63.76c-25.43,39.11-29.69,84.92-52.16,125.13-23.76,42.54-57.63,79-76.83,124.17C92.7,814,112.81,910.49,173.67,968.1c19.27,18.24,56.2,39.88,83.44,25.93,14.37-7.37,25.62-27.46,35.12-40.66C297.94,945.44,303.29,937.21,308.36,928.78Z" transform="translate(72.34)" fill="#e1606c" opacity="0.52"/><path d="M641,279.43s-20.72,50.51-25,98.56c0,0-18.82,34.54-22.45,65s52.06,45.88,97,42.74C737.91,482.43,760,442.2,760,442.2s66-84.84,47.9-142.91S662.26,207.17,641,279.43Z" transform="translate(72.34)" fill="#b5644e"/><circle cx="866.37" cy="396.81" r="33.37" fill="#b5644e"/><path d="M775.1,410.92l5.37,108.78c-7.92,47.17-141.91,30.77-136.18-3.34l15.77-82.67" transform="translate(72.34)" fill="#b5644e"/><path d="M718.62,353c-5.92-5.6-9.6-5.25-18.26-6-4.57-.37-9.21-.79-13,1.84s-6.14,7.5-4.92,11.92c1.3,4.72,6.08,7.58,10.72,9.14C702.4,373,736.05,369.49,718.62,353Z" transform="translate(72.34)" fill="#fff"/><path d="M685.45,362a14.46,14.46,0,0,1-1.44-9.5,17.43,17.43,0,0,1,3.39-3.58c5-4.32,18.14-1.6,19.73-1.35A13,13,0,1,1,685.45,362Z" transform="translate(72.34)" fill="#343546"/><path d="M694,329.05s26.74,7.76,38.39,11.39,12.38-10.14-.15-15.62-26.36-13.95-33.21-10S688.29,327.38,694,329.05Z" transform="translate(72.34)" fill="#343546"/><circle cx="796.07" cy="404.81" r="23.26" fill="#a45542"/><path d="M663.87,349.47s-37.4-10.19-27.44,22.79l3.68,6.23" transform="translate(72.34)" fill="none" stroke="#8a4234" stroke-miterlimit="10" stroke-width="2"/><path d="M643.31,403.25A48,48,0,0,0,693,401.43" transform="translate(72.34)" fill="none" stroke="#8a4234" stroke-miterlimit="10" stroke-width="2"/><path d="M655.88,381.49c3.77,2.86,10.21.24,10.92-4.44" transform="translate(72.34)" fill="none" stroke="#8a4234" stroke-miterlimit="10" stroke-width="2"/><path d="M821.9,297.39c.77,4,1.34,8,1.72,12,1.74,18.84-9.19,40.15-17.42,56.77a26.51,26.51,0,0,0-19.46,3.67c-4.52,2.92-6.7,6.55-9.11,11.26-1.86,3.65-5.12,7.45-9.19,6.93-4.7-.59-6.7-6.57-5.89-11.25s3.33-9,3.44-13.76c.14-6.21-3.81-11.64-6.52-17.23-10.63-22,23.64-41.7.69-62.69-7.79-7.12-18.68-9.48-29-11.57l-45.21-9.14c-9.34-1.88-19-3.77-28.32-1.66S643,272.56,640,282.19c3.14-23.89,12.76-51.06,34.94-60.47,19-8.05,106.54-1.57,130.93,34.34C814.18,268.35,819.07,282.8,821.9,297.39Z" transform="translate(72.34)" fill="#343546"/><path d="M683.8,352.24c2.61-3.71,7.41-5.2,11.93-5.56a35.89,35.89,0,0,1,27.68,10.05" transform="translate(72.34)" fill="none" stroke="#343546" stroke-miterlimit="10"/><path d="M646.77,319a12.19,12.19,0,0,0-3.95-13.83c-2.86-2.12-6.38-2.79-10-2.89-1.42,4.33-2.92,9.15-4.43,14.33Z" transform="translate(72.34)" fill="#343546"/><path d="M624.59,378.77a23.24,23.24,0,0,0-5.88-20.85c-1.13,6.64-2,13.38-2.64,20.07,0,0-4.08,7.49-8.81,18.57A23.25,23.25,0,0,0,624.59,378.77Z" transform="translate(72.34)" fill="#a45542"/><path d="M768.93,401.84l35.88-7.18" transform="translate(72.34)" fill="none" stroke="#8a4234" stroke-miterlimit="10" stroke-width="2"/><path d="M619.86,357.54c5.74.51,12.15-2.62,13.64-8.19,1-3.82-.48-8-3.24-10.87a17.12,17.12,0,0,0-6.65-4.09c-1.8,7.38-3.46,15.13-4.82,23C619.15,357.47,619.5,357.51,619.86,357.54Z" transform="translate(72.34)" fill="#fff"/><path d="M619.57,353.16l.19,0c4.15-.61,8.74-2.49,10.29-6.67,1.42-3.84-.46-8.16-3.5-10.75a20.49,20.49,0,0,0-2.94-1.33C622.14,340.43,620.77,346.74,619.57,353.16Z" transform="translate(72.34)" fill="#343546"/><path d="M686.37,342.68a34.2,34.2,0,0,1,28.39,1.53" transform="translate(72.34)" fill="none" stroke="#8a4234" stroke-miterlimit="10" stroke-width="2"/><rect x="301.46" y="754.12" width="686.2" height="408.74" fill="#f4f4f4"/><polygon points="301.46 844.68 591.17 1162.86 301.46 1162.86 301.46 844.68" fill="#c9c9c9" opacity="0.41"/><path d="M780.47,519.7s117.08-57.64,201.76-4.9c49,30.55,79.68,85,89,142,6.46,39.61,6.43,81.3-2.65,120.1-9.89,42.22-3.5,81.56,7.45,123,11.7,44.3,24.88,91.15,12,135.11-16.16,55-68.83,90.63-120.85,114.63-94.17,43.46-235,84.8-338.57,80.4l-41.11-117.52s14-72.32,77.27-90.4S914.22,948,914.22,948V754.57H364.59s23.87-231.19,79.55-259.16c38.05-19.11,134.17-25.12,184.25,15.92L654.2,658.48S762.63,580.68,780.47,519.7Z" transform="translate(72.34)" fill="#f1858c"/><line x1="986.56" y1="948.03" x2="1057.04" y2="927.02" fill="none" stroke="#bb4453" stroke-miterlimit="10"/><path d="M366.29,405.54l24.16-43.23s35.92,32.59,92.88,30.14l-18.64,59S394.8,446,366.29,405.54Z" transform="translate(72.34)" fill="#e1606c"/><path d="M683.48,484.76a177.28,177.28,0,0,1-33-.89l-6.2,32.49c18.35,1.23,39-1.09,54-11.83a86.17,86.17,0,0,0,28.24-35.21A84,84,0,0,1,683.48,484.76Z" transform="translate(72.34)" fill="#a45542"/><path d="M591.1,1112.23s-48.38,24.5-49.41,42.38c0,0,18.54,74.39,40.15,87l50.37-11.89S599.38,1151.56,591.1,1112.23Z" transform="translate(72.34)" fill="#e1606c"/><path d="M464.69,451.49c-.22,30.82-7.81,63.55-18.2,92.64-9.49,26.57-27.07,51-33.34,78.63-6.16,27.17-7.62,57.08-7.91,84.79" transform="translate(72.34)" fill="none" stroke="#e1606c" stroke-miterlimit="10" stroke-width="3"/><polygon points="798.34 730.37 799.53 754.12 819.81 754.12 832.2 726.86 901.54 734.34 847.82 701.74 894.31 653.07 823.34 691.05 786.37 641.22 795.87 700.17 733.9 716.89 798.34 730.37" fill="#f4f4f4"/><path d="M735.23,676.71a15.85,15.85,0,0,1,2.36-3.74l-23.4-31.54-.13,0,9.47,58.78-62,16.72,26,5.45a26.51,26.51,0,0,1,20.6-11.16c6.46-.19,13.59,1.88,19-1.67,4.87-3.2,6.22-9.72,6.3-15.55S732.87,682,735.23,676.71Z" transform="translate(72.34)" fill="#b8d8da"/><path d="M1045.37,369.38a79,79,0,0,0-33.29,8.2c-32.39,16.44-54.57,52.13-23.35,89.83,39.12,47.25,152.88,17,177.22-59.64s-14.45-104.84-32.88-108.34-38.93,15.16-49.2,43.81C1076,365.23,1056.22,369,1045.37,369.38Z" transform="translate(72.34)" fill="#b8d8da"/><g clip-path="url(#clip-path-2)"><path d="M980,488a35.89,35.89,0,0,0,37.4,5.87c14.44-6.37,22.85-21.52,28.31-36.33s9.25-30.67,18.81-43.24,27.36-20.82,41.4-13.59c11.07,5.7,16.15,19,16.81,31.46s-2.1,24.82-2.16,37.27,3.3,26,13.23,33.51" transform="translate(72.34)" fill="none" stroke="#92b4b6" stroke-miterlimit="10" stroke-width="3"/><path d="M1046.9,516.11a166.84,166.84,0,0,0,22-56c.8-4.16,1.48-8.41,3.4-12.19s5.36-7.06,9.57-7.54c6.66-.76,12.22,5.83,13.32,12.45s-.84,13.31-1.78,20a67.14,67.14,0,0,0,7.54,41.3" transform="translate(72.34)" fill="none" stroke="#92b4b6" stroke-miterlimit="10" stroke-width="3"/><path d="M1108.65,265a167.25,167.25,0,0,0-9,74.05c1.48,14.17,6.12,29.93,18.86,36.3,8.63,4.3,18.93,3.18,28.22,5.76,16.93,4.68,28.37,21.35,32,38.53s1,35-1.7,52.37" transform="translate(72.34)" fill="none" stroke="#92b4b6" stroke-miterlimit="10" stroke-width="3"/><path d="M1019.46,341.92a144.53,144.53,0,0,1,19.07,56.93c1.19,10.47.11,23.16-9,28.36-5.54,3.14-12.5,2.44-18.51.34s-11.51-5.46-17.52-7.56c-18.44-6.47-40.78.81-51.89,16.9" transform="translate(72.34)" fill="none" stroke="#92b4b6" stroke-miterlimit="10" stroke-width="3"/></g><g clip-path="url(#clip-path-3)"><path d="M528.58,690.24a63.89,63.89,0,1,0,63.88,63.88A63.88,63.88,0,0,0,528.58,690.24Zm0,93.06a29.18,29.18,0,1,1,29.17-29.18A29.17,29.17,0,0,1,528.58,783.3Z" transform="translate(72.34)" fill="#ffca72"/><path d="M592.46,754.12a63.87,63.87,0,0,0-37.76-58.29,23.81,23.81,0,0,0-.2,13.56c2.82,9.48,12,16.4,13.53,26.17,1.36,8.54-3.47,16.74-4.92,25.26-2.16,12.79,4.26,26.52,15.27,33.29A63.62,63.62,0,0,0,592.46,754.12Z" transform="translate(72.34)" fill="#f4f4f4"/></g><path d="M364.2,176.8c-1.46-1.53,163.13-85.11,163.13-85.11s14.82,52.81-9.79,85.11S427.25,243.22,364.2,176.8Z" transform="translate(72.34)" fill="#f1b9b0"/><polygon points="954.42 100.31 1012.35 0 1024.64 83.23 1089.93 71.1 1104.32 117.04 1162.72 114.85 1126.07 200.2 954.42 100.31" fill="#ffca72"/><path d="M1020.5,139l-4.63,5.35" transform="translate(72.34)" fill="#fff"/><path d="M1018.38,136.83l-4.63,5.35a3.08,3.08,0,0,0,0,4.24,3,3,0,0,0,4.24,0l4.63-5.35a3.08,3.08,0,0,0,0-4.24,3,3,0,0,0-4.24,0Z" transform="translate(72.34)" fill="#343546"/><path d="M1033,175.2l-4,5.91" transform="translate(72.34)" fill="#fff"/><path d="M1030.44,173.69l-4,5.9a3,3,0,1,0,5.18,3l4-5.9a3,3,0,1,0-5.18-3Z" transform="translate(72.34)" fill="#343546"/><path d="M1087.55,185l-5.85,8.3" transform="translate(72.34)" fill="#fff"/><path d="M1085,183.45l-5.85,8.3a3,3,0,0,0,1.08,4.11,3.06,3.06,0,0,0,4.1-1.08l5.85-8.3a3,3,0,0,0-1.07-4.1,3.07,3.07,0,0,0-4.11,1.07Z" transform="translate(72.34)" fill="#343546"/><path d="M1046.8,205.81l-3.1,6.67" transform="translate(72.34)" fill="#fff"/><path d="M1044.21,204.29l-3.1,6.67a3.1,3.1,0,0,0,1.08,4.11,3,3,0,0,0,4.1-1.08l3.1-6.67a3.08,3.08,0,0,0-1.08-4.1,3,3,0,0,0-4.1,1.07Z" transform="translate(72.34)" fill="#343546"/><path d="M1002.36,172.41l-6.42,8.43" transform="translate(72.34)" fill="#fff"/><path d="M999.77,170.9l-6.42,8.43c-1,1.29-.2,3.35,1.08,4.1a3.07,3.07,0,0,0,4.1-1.08l6.42-8.43c1-1.29.21-3.35-1.07-4.1a3.08,3.08,0,0,0-4.11,1.08Z" transform="translate(72.34)" fill="#343546"/><path d="M985.71,144,981,150.41" transform="translate(72.34)" fill="#fff"/><path d="M983.12,142.5l-4.75,6.39c-1,1.3-.21,3.35,1.08,4.11a3.07,3.07,0,0,0,4.1-1.08l4.75-6.39a3,3,0,0,0-1.07-4.1,3.07,3.07,0,0,0-4.11,1.07Z" transform="translate(72.34)" fill="#343546"/><path d="M1007.4,205.67l-4.58,7.39" transform="translate(72.34)" fill="#fff"/><path d="M1004.81,204.15l-4.58,7.39c-2,3.29,3.15,6.31,5.18,3l4.58-7.39c2-3.29-3.14-6.31-5.18-3Z" transform="translate(72.34)" fill="#343546"/><path d="M1028.21,238.5,1022,249.73" transform="translate(72.34)" fill="#fff"/><path d="M1025.62,237l-6.22,11.23c-1.88,3.38,3.3,6.41,5.18,3L1030.8,240c1.87-3.38-3.31-6.41-5.18-3Z" transform="translate(72.34)" fill="#343546"/><path d="M977.4,208.49l-4.69,6.44" transform="translate(72.34)" fill="#fff"/><path d="M974.81,207l-4.69,6.43a3,3,0,0,0,1.08,4.11,3.08,3.08,0,0,0,4.1-1.08L980,210a3,3,0,0,0-1.07-4.11,3.09,3.09,0,0,0-4.11,1.08Z" transform="translate(72.34)" fill="#343546"/><path d="M334.26,552.55c-11.37-16.46-10.68-29.82-10.14-40.55.47-9.09.8-15.65-5.76-25.15s-12.82-11.51-21.48-14.29c-10.23-3.28-23-7.38-34.33-23.83s-10.69-29.81-10.14-40.55c.46-9.08.8-15.65-5.76-25.14a12.44,12.44,0,1,1,20.46-14.14c11.36,16.46,10.68,29.82,10.13,40.55-.46,9.08-.8,15.65,5.77,25.15s12.81,11.5,21.48,14.29c10.23,3.28,23,7.37,34.33,23.83s10.69,29.81,10.14,40.55c-.46,9.08-.8,15.64,5.76,25.14s12.82,11.51,21.48,14.29c10.24,3.29,23,7.38,34.34,23.84a12.43,12.43,0,0,1-20.46,14.13c-6.56-9.5-12.82-11.51-21.48-14.29C358.36,573.09,345.63,569,334.26,552.55Z" transform="translate(72.34)" fill="#fddbd5"/><path d="M304.49,448.89c-8.67-2.79-14.92-4.8-21.48-14.29-.72-1-1.34-2-1.89-3q-3.47,11-6.62,22.17c-.6,2.15-1.2,4.3-1.78,6.46,8.39,7.26,16.91,10,24.16,12.33,8.66,2.78,14.92,4.79,21.48,14.29,4.49,6.5,5.75,11.63,5.95,17.13A124.94,124.94,0,0,0,345,487.73l1.1-1.1a60.34,60.34,0,0,0-7.28-13.91C327.45,456.26,314.72,452.17,304.49,448.89Z" transform="translate(72.34)" fill="#fff"/><circle cx="401.48" cy="701.87" r="12.27" fill="#fff"/><ellipse cx="341.17" cy="636.25" rx="31.1" ry="31.45" fill="#fff"/><path d="M625,327.45a14.93,14.93,0,0,1,9,10" transform="translate(72.34)" fill="none" stroke="#8a4234" stroke-miterlimit="10" stroke-width="2"/><line x1="1025.46" y1="610.64" x2="1025.46" y2="718.94" fill="none" stroke="#fff" stroke-miterlimit="10" stroke-width="2"/><line x1="1076.54" y1="664.99" x2="972.86" y2="664.99" fill="none" stroke="#fff" stroke-miterlimit="10" stroke-width="2"/><line x1="1002.82" y1="687.62" x2="1048.09" y2="642.36" fill="none" stroke="#fff" stroke-miterlimit="10" stroke-width="2"/><line x1="1048.09" y1="687.62" x2="1002.82" y2="642.36" fill="none" stroke="#fff" stroke-miterlimit="10" stroke-width="2"/><path d="M478,1162.49l-117.81.93,21.32,25.24,16.69,24.78a30.31,30.31,0,0,0,11.21,10l17.27,9c1.48,2.2,7.75,7.29,9.55,9.24,6.36,6.88,16.95,4.42,45.38,4.42l100.26-4.42-40.15-87-39-27.83L444,1105.41c-6-2.17-10.9-.6-13.48,3.91a8.41,8.41,0,0,0,.2,8.58,31.93,31.93,0,0,0,11.1,10.83L469.9,1148Z" transform="translate(72.34)" fill="#b5644e"/><path d="M414.48,1192.3l-55.55-6.59a11.18,11.18,0,0,1-9.32-7.66h0a11.18,11.18,0,0,1,10.55-14.63l46.68-.37" transform="translate(72.34)" fill="#b5644e"/><line x1="537.03" y1="754.12" x2="537.03" y2="1073.12" fill="none" stroke="#4d4e60" stroke-miterlimit="10"/><path d="M483.33,392.45l3.19-29.66,44.67-106.88a7.85,7.85,0,0,0,.6-3.49l-7.66-73.16a2.82,2.82,0,0,0-3.5-2.58c-6.48,1.58-17.05,6.85-16.57,60.81l-17.54,39.9V226.23a4.43,4.43,0,0,0-2.76-4.1L413,193.25s-5.68,9.95,2.5,16.6a31.25,31.25,0,0,0,13.34,6.56l17.3,11.75s-35.75,2.65-44,3.64c0,0-4.3,16.88,17.22,15.89s27.8,2.65,27.8,2.65l-38.38,13.38c.55,6.6,4.64,13.57,18.21,12.25l11.2-1.94L402.3,325a65.35,65.35,0,0,0-9.46,24l-2.39,13.3S431.9,404.09,483.33,392.45Z" transform="translate(72.34)" fill="#b5644e"/><path d="M490.1,302.89v-60.6a1.87,1.87,0,0,0-1.85-1.87c-4.73,0-17.12,1.84-21,20.2a268.72,268.72,0,0,0-5.54,40.88s-21.48,9.71-29.79,26.34" transform="translate(72.34)" fill="#b5644e" stroke="#8a4234" stroke-miterlimit="10" stroke-width="2"/><line x1="454.11" y1="1188.42" x2="530.11" y2="1193.95" fill="#b5644e" stroke="#8a4234" stroke-miterlimit="10" stroke-width="2"/><polygon points="726.25 755.94 726.25 835.66 730.8 830.6 735.35 825.53 739.9 830.6 743.5 834.61 747.1 830.6 751.65 825.53 756.2 830.6 759.79 834.61 763.39 830.6 767.94 825.53 772.49 830.6 776.09 834.61 779.69 830.6 784.24 825.53 788.79 830.6 792.39 834.61 795.99 830.6 800.54 825.53 805.09 830.6 809.64 835.66 809.64 755.94 726.25 755.94" fill="#c9c9c9"/><line x1="501.18" y1="216.41" x2="538.66" y2="238.88" fill="#b5644e" stroke="#8a4234" stroke-miterlimit="10" stroke-width="2"/><line x1="520.31" y1="249.73" x2="539.22" y2="251.89" fill="#b5644e" stroke="#8a4234" stroke-miterlimit="10" stroke-width="2"/><line x1="510.5" y1="274.03" x2="519.92" y2="262.81" fill="#b5644e" stroke="#8a4234" stroke-miterlimit="10" stroke-width="2"/><line x1="498.99" y1="1232.39" x2="541.97" y2="1232.39" fill="#b5644e" stroke="#8a4234" stroke-miterlimit="10" stroke-width="2"/><line x1="471" y1="1212.35" x2="534.38" y2="1214.25" fill="#b5644e" stroke="#8a4234" stroke-miterlimit="10" stroke-width="2"/><circle cx="613.87" cy="516.66" r="52.1" fill="none" stroke="#fff" stroke-miterlimit="10" stroke-width="2"/><path d="M1126.13,543.82c3.86,0,3.87-6,0-6s-3.86,6,0,6Z" transform="translate(72.34)" fill="#fff"/><polyline points="302.26 754.85 127.4 278.02 1176.89 278.02 987.36 755.3" fill="url(#linear-gradient)" style="mix-blend-mode:overlay"/><rect x="809.56" y="497.31" width="39.8" height="116.77" rx="19.9" transform="matrix(0.83, 0.56, -0.56, 0.83, 528.73, -370.38)" fill="#fddbd5"/><path d="M823.52,599.8l6.36-9.36A89.31,89.31,0,0,0,826,573.62c-3.14-10-7.06-19.85-8-30.27a44.28,44.28,0,0,1-.12-6.1L790.61,577.4a18.59,18.59,0,0,0,4.91,25.82l2.17,1.48A18.59,18.59,0,0,0,823.52,599.8Z" transform="translate(72.34)" fill="#f1b9b0"/><path d="M169.76,243.61,46.07,139.69c8-11.66,17.4-30.75,34.41-26.34a18,18,0,0,1,9.93,6.46c6.4,8.65,2.4,19.79,4.66,29.49,1.25,5.36,5,10.6,10.42,11.59,6,1.1,11.57-3.2,16.37-7s11-7.59,16.71-5.36c6.49,2.54,8,11,7.91,18,0,4.89-.32,9.85.75,14.62s3.73,9.47,8.12,11.65c10.17,5.06,21.79-5.55,33.07-4.17a14.89,14.89,0,0,1,3,.69c10,3.41,13.34,15.94,6.74,24.19Z" transform="translate(72.34)" fill="#92b4b6"/><path d="M1084.83,948.76c15,66-22.74,140.1-85,166.78-47.08,20.18-101,14.37-151.27,4.8s-101.35-22.59-152.1-15.66c-36,4.91-72.33,22.94-94,50.93l26,74.46c103.62,4.4,244.4-36.94,338.57-80.4,52-24,104.69-59.66,120.85-114.63,8.58-29.19,5.65-59.64-.71-89.78Z" transform="translate(72.34)" fill="#e1606c" opacity="0.52"/></g></g></g></svg>