<svg xmlns="http://www.w3.org/2000/svg" viewBox="0 0 42.56 48.15"><g id="Layer_2" data-name="Layer 2"><g id="Layer_1-2" data-name="Layer 1"><path d="M1.28,30.7A19.29,19.29,0,0,0,8.75,44.5a19.33,19.33,0,0,0,16.72,2.89c4.71-1.38,10.46-6.3,7.65-11.78-1.57-3-5.26-4.22-8.61-4.93-3.63-.77-7.82-1.57-10.17-4.68-1.77-2.35-2.76-6.3-6.06-7a5,5,0,0,0-4.47,1.65,9.76,9.76,0,0,0-2.12,4.44A18.06,18.06,0,0,0,1.28,30.7Z" fill="#f4f4f4"/><path d="M12.09,15a13.82,13.82,0,0,1,27-4.16l.09.28h0v0c0,.12.08.25.11.37l3.31,11.66H38.8V28.6A2.38,2.38,0,0,1,36.42,31H32.6v4h-16V26.59a3,3,0,0,0-.81-2.05A13.71,13.71,0,0,1,12.09,15Z" fill="#91b3b5"/><path d="M20,7.82a10.81,10.81,0,0,0-2.13,11.37,6.48,6.48,0,0,0,2,2.77,3.66,3.66,0,0,0,3.28.61c2.21-.76,2.71-3.65,4.3-5.35,1.22-1.29,3-1.83,4.62-2.61,4.85-2.39,3.1-7-.85-9.33C27.83,3.27,22.51,5.21,20,7.82Z" fill="#feca71"/><path d="M40,10.08l.73,1.27-.66-1.41" fill="#333445"/><path d="M39.78,10.2l.73,1.27a.23.23,0,0,0,.32.08.24.24,0,0,0,.09-.32l-.66-1.41a.24.24,0,0,0-.32-.09.26.26,0,0,0-.09.33l.66,1.41.41-.24L40.19,10a.25.25,0,0,0-.33-.09.24.24,0,0,0-.08.32Z" fill="#333445"/><path d="M37.16,14.7l.43.75L37,14.32l.6,1.22" fill="#333445"/><path d="M37,14.82l.44.74a.23.23,0,0,0,.32.09.24.24,0,0,0,.09-.32l-.61-1.13a.23.23,0,0,0-.32-.08.24.24,0,0,0-.08.32l.6,1.22a.23.23,0,0,0,.32.08.24.24,0,0,0,.08-.32l-.6-1.22-.4.24.6,1.12.41-.23-.44-.75A.24.24,0,0,0,37,14.5a.24.24,0,0,0-.09.32Z" fill="#333445"/><path d="M33.31,14.34a1.38,1.38,0,0,0,.48,1,1.89,1.89,0,0,0-.7-1.43l.13.39" fill="#333445"/><path d="M33.07,14.34a1.65,1.65,0,0,0,.55,1.21.25.25,0,0,0,.26,0,.23.23,0,0,0,.14-.22,2.09,2.09,0,0,0-.77-1.59.23.23,0,0,0-.28,0,.22.22,0,0,0-.11.27l.13.38a.24.24,0,0,0,.46-.12l-.14-.39-.39.23a2.37,2.37,0,0,1,.28.27s0,0,0,0l0,0,.06.08a1.62,1.62,0,0,1,.1.18.59.59,0,0,0,0,.08s0,0,0,0l0,.05.06.19s0,.06,0,.09v.05s0,.05,0,0,0,0,0,0v.15l.41-.16-.11-.1,0,0,0,0s0,0,0,0a1,1,0,0,1-.15-.24v0a.19.19,0,0,1,0-.07.5.5,0,0,1,0-.13.13.13,0,0,1,0-.06s0-.07,0,0a.76.76,0,0,1,0-.15.23.23,0,0,0-.23-.24.24.24,0,0,0-.24.24Z" fill="#333445"/><path d="M38.17,6.5l.43.9a1.48,1.48,0,0,0-.51-1" fill="#333445"/><path d="M38,6.62l.43.9a.24.24,0,0,0,.44-.12,1.72,1.72,0,0,0-.58-1.2.23.23,0,0,0-.33.33l.1.1.09.11s0,0,0,0l0,0,0,.06.08.12a.14.14,0,0,1,0,.06s0,0,0,0,0,0,0,0a1.12,1.12,0,0,1,0,.13l0,.14v0s0,0,0,0,0,.06,0,.08l.44-.12-.44-.89a.23.23,0,0,0-.32-.09.24.24,0,0,0-.08.32Z" fill="#333445"/><path d="M34.68,4.47l.52,1.1a1.26,1.26,0,0,0-.42-1.17" fill="#333445"/><path d="M34.48,4.59,35,5.69a.24.24,0,0,0,.43-.05,1.5,1.5,0,0,0-.49-1.41.23.23,0,1,0-.33.33l.11.11s0,0,.05.06,0,0,0,0l0,0a.83.83,0,0,1,.08.12l0,.08s0,0,0,0l0,0a1,1,0,0,1,0,.14s0,.06,0,.08,0,0,0,0,0,0,0,0a.81.81,0,0,1,0,.16.15.15,0,0,0,0,.07s0,.06,0,0,0,0,0,0l.43-.06-.51-1.1a.24.24,0,0,0-.33-.08.24.24,0,0,0-.08.32Z" fill="#333445"/><path d="M30,5,30.7,6a1.43,1.43,0,0,0-.65-1.39.41.41,0,0,0,.13.57" fill="#333445"/><path d="M29.8,5.08l.7,1.07a.23.23,0,0,0,.26.11A.27.27,0,0,0,30.94,6a1.69,1.69,0,0,0-.77-1.59.25.25,0,0,0-.33.08.65.65,0,0,0,.22.89.23.23,0,0,0,.32-.08A.24.24,0,0,0,30.3,5l0,0h0l0,0s0,0,0,0,0-.08,0,0,0,0,0-.06,0,0,0,0v0h0s0,0,0-.07,0,0,0,0l-.32.08L30,4.9h0l0,0,.13.13,0,0s0,0,0,0l.06.08.09.17v0l0,.09a1.05,1.05,0,0,1,0,.19h0v.06a.28.28,0,0,1,0,.09,1.34,1.34,0,0,1,0,.2l.44-.12-.7-1.07a.23.23,0,0,0-.32-.09.24.24,0,0,0-.09.33Z" fill="#333445"/><path d="M29.44,15.05l.69,1a1.57,1.57,0,0,0-.66-1.24" fill="#333445"/><path d="M29.23,15.17l.7,1a.22.22,0,0,0,.26.11.24.24,0,0,0,.18-.22,1.83,1.83,0,0,0-.78-1.44.24.24,0,0,0-.32.08.24.24,0,0,0,.08.33l0,0h0l.06.06a.68.68,0,0,1,.12.12l.06.06s0,0,0,0l0,0a1.19,1.19,0,0,1,.09.15.25.25,0,0,1,0,.07l0,0h0a1.09,1.09,0,0,1,.05.17.94.94,0,0,1,0,.16s0,0,0,0v0a.38.38,0,0,0,0,.1l.43-.12-.69-1a.23.23,0,0,0-.32-.08.24.24,0,0,0-.09.32Z" fill="#333445"/><path d="M36.81,10.51l.38.67a1.34,1.34,0,0,0-.54-1,1,1,0,0,0,.49.81" fill="#333445"/><path d="M36.61,10.63l.38.67a.24.24,0,0,0,.27.11.25.25,0,0,0,.17-.23,1.7,1.7,0,0,0-.19-.69,1.61,1.61,0,0,0-.47-.54.27.27,0,0,0-.23,0,.27.27,0,0,0-.12.21,1.2,1.2,0,0,0,.6,1,.23.23,0,0,0,.24-.4s-.11,0-.1-.07h0l0,0,0,0L37,10.57h0l0,0,0,0-.05-.1s0,0,0,0v0a.08.08,0,0,1,0-.05l0-.11s0,0,0,0v-.09l-.35.2s0,0,0,0l0,0,0,0,.09.1,0,0s0,0,0,0l0,0a.83.83,0,0,1,.07.13l0,.06,0,0s0,0,0,0a.58.58,0,0,1,.05.14l0,.13s0,0,0,0v0a.22.22,0,0,1,0,.08l.44-.12L37,10.39a.24.24,0,0,0-.32-.08.24.24,0,0,0-.09.32Z" fill="#333445"/><path d="M33.23,8.58l.62,1a2,2,0,0,0-.63-1.07" fill="#333445"/><path d="M33,8.7l.61,1a.26.26,0,0,0,.3.1.23.23,0,0,0,.13-.28,2.15,2.15,0,0,0-.68-1.17.24.24,0,1,0-.34.33,2.28,2.28,0,0,1,.22.22l0,0h0l.05.07.08.13.07.12,0,.07h0v0a1.71,1.71,0,0,1,.09.3l.43-.18-.62-1a.24.24,0,0,0-.32-.08A.24.24,0,0,0,33,8.7Z" fill="#333445"/><path d="M29.35,9.47l.66,1a2,2,0,0,0-.66-1.21" fill="#333445"/><path d="M29.15,9.59l.65,1a.24.24,0,0,0,.3.09.23.23,0,0,0,.13-.27,2.16,2.16,0,0,0-.71-1.31.24.24,0,0,0-.34.33,1.36,1.36,0,0,1,.24.24s0,0,0,0l0,0,.05.07.09.15s0,.09.07.14,0,0,0,0v0l0,.09a2,2,0,0,1,.08.33l.43-.18-.65-1a.24.24,0,0,0-.41.24Z" fill="#333445"/><path d="M17.55,16.75a5.28,5.28,0,0,1,6-1.47" fill="none" stroke="#f2858c" stroke-miterlimit="10" stroke-width="0.47"/><path d="M20.92,14.86a4.12,4.12,0,0,0,.62-3.29" fill="none" stroke="#f2858c" stroke-miterlimit="10" stroke-width="0.47"/><path d="M22.53,18.61a3.07,3.07,0,0,1,3.22,1.15" fill="none" stroke="#f2858c" stroke-miterlimit="10" stroke-width="0.47"/><path d="M25.6,4.79a3.57,3.57,0,0,0-1.46,4.36" fill="none" stroke="#f2858c" stroke-miterlimit="10" stroke-width="0.47"/><ellipse cx="4.4" cy="4.45" rx="4.4" ry="4.45" fill="#f2858c"/><circle cx="7.54" cy="12.36" r="1.14" fill="#f2858c"/></g></g></svg>