<svg width="59" height="60" viewBox="0 0 59 60" fill="none" xmlns="http://www.w3.org/2000/svg">
<path d="M8.06637 40.0118C8.5364 45.8482 11.4852 51.5112 16.1923 55.0244C21.3116 58.8447 28.2762 59.9529 34.3819 58.1702C39.5085 56.6732 45.7701 51.3205 42.7054 45.3571C41.0029 42.0442 36.986 40.7606 33.3417 39.9907C29.3901 39.156 24.8347 38.2824 22.2775 34.8962C20.3473 32.3411 19.276 28.0381 15.6833 27.3104C13.9133 26.9521 12.0501 27.7851 10.8218 29.1088C9.59345 30.4325 8.91949 32.1809 8.50637 33.9388C8.0395 35.929 7.90249 37.981 8.06637 40.0118Z" fill="#76AAAF"/>
<path d="M19.8219 22.8904C19.8935 14.6337 26.68 7.94364 34.9362 7.98475C41.5825 8.01742 47.2092 12.3615 49.1631 18.3634C49.1968 18.4677 49.2295 18.5726 49.2611 18.678L49.2653 18.6922C49.3059 18.8276 49.3449 18.9641 49.3818 19.1011L52.9855 31.7809H48.8938V37.7306C48.8938 39.1623 47.733 40.3232 46.3013 40.3232H42.1463V44.7021H24.7741V35.5417C24.7741 34.7128 24.4584 33.9156 23.8915 33.3112C21.3389 30.5911 19.7866 26.922 19.8219 22.8898V22.8904Z" fill="#F1A17F"/>
<path d="M11.6639 23.3277C18.1056 23.3277 23.3277 18.1056 23.3277 11.6639C23.3277 5.22209 18.1056 0 11.6639 0C5.22209 0 0 5.22209 0 11.6639C0 18.1056 5.22209 23.3277 11.6639 23.3277Z" fill="#F4EBE7"/>
<path d="M20.8816 16.5818L23.0964 23.3277L16.7415 21.2152" fill="#F4EBE7"/>
<path d="M47 9.49732C48.5777 10.1407 49.8328 11.4085 50.4588 12.9952C51.0864 11.4091 52.3416 10.1412 53.9177 9.49732C52.3416 8.85392 51.0864 7.5861 50.4588 6C49.8328 7.5861 48.5777 8.85392 47 9.49732Z" fill="#FFCB62"/>
<path d="M9.74675 51.4935C11.2637 51.4935 12.4935 50.2637 12.4935 48.7467C12.4935 47.2298 11.2637 46 9.74675 46C8.22976 46 7 47.2298 7 48.7467C7 50.2637 8.22976 51.4935 9.74675 51.4935Z" fill="#F4EBE7"/>
<path d="M16.051 36H15.8318V41.8828H16.051V36Z" fill="#FECA71"/>
<path d="M18.8823 38.8312H13V39.0504H18.8823V38.8312Z" fill="#FECA71"/>
<path d="M17.9439 36.7841L13.7834 40.9431L13.9384 41.0981L18.0989 36.9391L17.9439 36.7841Z" fill="#FECA71"/>
<path d="M13.9394 36.7839L13.7844 36.9389L17.9442 41.0986L18.0992 40.9436L13.9394 36.7839Z" fill="#FECA71"/>
<path d="M57.8242 52.4431C58.0898 52.9026 58.3548 53.3626 58.6204 53.8221C58.3807 53.3094 58.1414 52.7967 57.9017 52.284" fill="#333445"/>
<path d="M57.6034 52.5722C57.869 53.0317 58.134 53.4917 58.3996 53.9512C58.4665 54.0672 58.6341 54.1178 58.7495 54.0429C58.8749 53.9623 58.9023 53.8232 58.8412 53.693C58.6014 53.1803 58.3622 52.6676 58.1224 52.1549C58.0655 52.0332 57.8811 51.9931 57.7725 52.0632C57.6471 52.1438 57.6197 52.2829 57.6809 52.4131C57.9206 52.9258 58.1598 53.4385 58.3996 53.9512C58.5471 53.8653 58.6942 53.7789 58.8417 53.693C58.5761 53.2335 58.3111 52.7735 58.0455 52.314C57.9786 52.1981 57.811 52.1475 57.6956 52.2223C57.5786 52.2977 57.5323 52.4484 57.6039 52.5722H57.6034Z" fill="#333445"/>
<path d="M54.7496 57.4681C54.9077 57.7379 55.0652 58.0077 55.2233 58.278C55.0041 57.8696 54.7849 57.4607 54.5657 57.0523C54.7844 57.4955 55.003 57.9386 55.2222 58.3813" fill="#333445"/>
<path d="M54.5289 57.5972C54.6869 57.8669 54.8445 58.1367 55.0026 58.4071C55.07 58.5225 55.2365 58.5736 55.3525 58.4988C55.4726 58.4213 55.5121 58.2748 55.4442 58.1489C55.225 57.7405 55.0057 57.3316 54.7865 56.9232C54.7233 56.8052 54.5499 56.7583 54.4366 56.8315C54.3133 56.9111 54.2812 57.0528 54.345 57.1814C54.5636 57.6246 54.7823 58.0677 55.0015 58.5103C55.0611 58.6305 55.2413 58.6732 55.3514 58.602C55.4747 58.5225 55.5069 58.3807 55.4431 58.2521C55.2244 57.809 55.0057 57.3658 54.7865 56.9232C54.639 57.0091 54.492 57.0955 54.3444 57.1814C54.5636 57.5898 54.7828 57.9987 55.0021 58.4071C55.1496 58.3212 55.2966 58.2348 55.4442 58.1489C55.2861 57.8791 55.1285 57.6093 54.9704 57.339C54.903 57.2236 54.7365 57.1724 54.6205 57.2473C54.5041 57.3221 54.4567 57.4738 54.5289 57.5972Z" fill="#333445"/>
<path d="M50.5578 57.0697C50.5583 57.5013 50.7559 57.9291 51.0847 58.209C51.0779 57.6114 50.7886 57.0233 50.3196 56.6529C50.3686 56.7931 50.4171 56.9332 50.4661 57.0734" fill="#333445"/>
<path d="M50.3016 57.0697C50.3064 57.5687 50.5251 58.0619 50.9034 58.3897C50.983 58.4587 51.0831 58.4851 51.1827 58.4424C51.2744 58.4039 51.3418 58.3107 51.3397 58.2084C51.3276 57.5445 51.0204 56.8879 50.4992 56.4711C50.4128 56.4015 50.2916 56.3652 50.1894 56.431C50.0982 56.4895 50.034 56.6107 50.0719 56.7198C50.1209 56.86 50.1694 57.0001 50.2184 57.1403C50.2621 57.2663 50.3954 57.3637 50.533 57.3189C50.6579 57.2784 50.759 57.1393 50.7116 57.0044C50.6626 56.8642 50.6141 56.724 50.5651 56.5839C50.4223 56.6666 50.28 56.7498 50.1372 56.8326C50.2479 56.9211 50.3485 57.0196 50.4386 57.1292C50.4481 57.1408 50.4724 57.1725 50.4508 57.144C50.4602 57.1567 50.4703 57.1698 50.4792 57.183C50.5003 57.2125 50.5208 57.2425 50.5403 57.2731C50.5793 57.3342 50.6152 57.3975 50.6478 57.4628C50.6621 57.4918 50.6758 57.5208 50.6889 57.5503C50.7005 57.5756 50.6795 57.5239 50.6958 57.5671C50.7016 57.5824 50.7074 57.5972 50.7132 57.6125C50.7385 57.6804 50.7595 57.75 50.7775 57.8206C50.7864 57.8559 50.7943 57.8912 50.8012 57.927C50.8043 57.9428 50.807 57.9587 50.8096 57.9745C50.8107 57.9792 50.818 58.0277 50.8144 58.0003C50.8096 57.9687 50.818 58.0324 50.8186 58.0382C50.8201 58.054 50.8217 58.0704 50.8228 58.0867C50.8259 58.1268 50.8275 58.1673 50.8281 58.2079C50.9735 58.1478 51.1195 58.0872 51.2649 58.0272C51.2248 57.9924 51.1864 57.9565 51.15 57.9176C51.1332 57.8996 51.1168 57.8817 51.101 57.8628C51.0931 57.8533 51.0852 57.8443 51.0778 57.8348C51.0899 57.8517 51.091 57.8527 51.0805 57.8385C51.0193 57.7574 50.9672 57.6694 50.9234 57.5771C50.9224 57.5745 50.8929 57.5034 50.9103 57.5487C50.9013 57.526 50.8929 57.5029 50.885 57.4802C50.8692 57.4338 50.8555 57.3869 50.8444 57.3395C50.8386 57.3158 50.8338 57.2921 50.8291 57.2678C50.827 57.2552 50.8175 57.1935 50.8233 57.2394C50.8165 57.183 50.8133 57.1261 50.8128 57.0687C50.8112 56.9348 50.6958 56.8068 50.5567 56.8126C50.4191 56.8189 50.2995 56.9248 50.3006 57.0687L50.3016 57.0697Z" fill="#333445"/>
<path d="M55.8499 48.5485C56.008 48.8736 56.1666 49.1987 56.3247 49.5238C56.2994 49.0954 56.0939 48.6802 55.7693 48.3994" fill="#333445"/>
<path d="M55.6284 48.6776C55.7865 49.0027 55.9451 49.3278 56.1032 49.653C56.2133 49.879 56.5964 49.7726 56.5801 49.5239C56.5474 49.027 56.3266 48.548 55.9498 48.2181C55.8492 48.1301 55.6859 48.1117 55.5878 48.2181C55.4993 48.3145 55.4803 48.4858 55.5878 48.5801C55.6258 48.6133 55.6627 48.6481 55.698 48.685C55.7312 48.7197 55.7607 48.7693 55.7976 48.7998C55.777 48.7825 55.7744 48.7688 55.7955 48.7983C55.8023 48.8077 55.8092 48.8178 55.816 48.8272C55.8297 48.8467 55.8429 48.8668 55.8555 48.8868C55.884 48.9321 55.9103 48.979 55.9346 49.027C55.9451 49.048 55.9556 49.0696 55.9651 49.0918C55.9683 49.0981 55.9857 49.1355 55.9699 49.1023C55.953 49.066 55.9741 49.1134 55.9767 49.1218C55.9946 49.1692 56.0104 49.2172 56.0236 49.2662C56.0373 49.3152 56.0484 49.3647 56.0568 49.4143C56.0589 49.4259 56.0605 49.438 56.0626 49.4496C56.0684 49.4849 56.0589 49.448 56.0605 49.4348C56.0573 49.4617 56.0668 49.4965 56.0684 49.5239C56.2275 49.4807 56.3862 49.438 56.5453 49.3948C56.3872 49.0696 56.2286 48.7445 56.0705 48.4194C56.012 48.2987 55.8302 48.2566 55.7206 48.3277C55.5968 48.4073 55.5662 48.5485 55.6289 48.6776H55.6284Z" fill="#333445"/>
<path d="M52.0564 46.3369C52.245 46.7363 52.4332 47.1358 52.6218 47.5352C52.7082 47.0667 52.5243 46.5582 52.1581 46.2537" fill="#333445"/>
<path d="M51.8355 46.466C52.0241 46.8655 52.2122 47.2649 52.4009 47.6643C52.4915 47.8566 52.8309 47.815 52.8688 47.6032C52.9679 47.0436 52.7792 46.4444 52.3398 46.0729C52.2375 45.9865 52.0768 45.9654 51.9778 46.0729C51.8903 46.1683 51.8687 46.3427 51.9778 46.4349C52.0194 46.4702 52.0594 46.5077 52.0963 46.5477C52.1158 46.5688 52.1348 46.5909 52.1532 46.613C52.1775 46.642 52.158 46.6094 52.1485 46.6067C52.1548 46.6083 52.1717 46.6389 52.1764 46.6457C52.2075 46.6905 52.2354 46.7374 52.2613 46.7859C52.275 46.8117 52.2865 46.8381 52.2992 46.8639C52.315 46.896 52.2834 46.8222 52.296 46.856C52.3018 46.8713 52.3076 46.886 52.3134 46.9013C52.3319 46.9529 52.3477 47.0051 52.3603 47.0583C52.3672 47.0868 52.3719 47.1147 52.3777 47.1432C52.3846 47.1785 52.373 47.1463 52.3772 47.1321C52.3745 47.1416 52.3803 47.1605 52.3814 47.1706C52.3872 47.228 52.3893 47.286 52.3872 47.3434C52.3861 47.3692 52.3846 47.3945 52.3824 47.4203C52.3819 47.4288 52.374 47.4836 52.3803 47.4435C52.3872 47.4024 52.3761 47.4641 52.3761 47.4667C52.5321 47.4461 52.6881 47.4261 52.844 47.4056C52.6554 47.0061 52.4673 46.6067 52.2786 46.2073C52.2212 46.0861 52.0378 46.045 51.9288 46.1156C51.8039 46.1962 51.7759 46.3359 51.8371 46.4655L51.8355 46.466Z" fill="#333445"/>
<path d="M46.9677 46.8644C47.2201 47.2543 47.473 47.6448 47.7254 48.0347C47.805 47.4498 47.513 46.8307 47.0114 46.5198C46.877 46.7174 46.9482 47.023 47.1558 47.1416" fill="#333445"/>
<path d="M46.7469 46.9935C46.9993 47.3834 47.2522 47.7739 47.5046 48.1638C47.5642 48.2561 47.6833 48.3172 47.7934 48.2813C47.9104 48.2434 47.9662 48.1522 47.981 48.0347C48.0679 47.356 47.7133 46.6605 47.1405 46.299C47.0198 46.2231 46.8633 46.2774 46.7906 46.3907C46.5835 46.7137 46.7037 47.1669 47.0267 47.3624C47.1416 47.4319 47.3128 47.3913 47.3766 47.2707C47.4419 47.1463 47.4071 46.9945 47.2849 46.9208C47.2738 46.9145 47.2628 46.9076 47.2522 46.9002C47.2786 46.9208 47.2812 46.9218 47.2601 46.9034C47.2512 46.8944 47.2422 46.8855 47.2338 46.8755C47.2538 46.9023 47.2554 46.9044 47.2396 46.8813C47.2322 46.8681 47.199 46.7938 47.2217 46.857C47.2138 46.8359 47.2085 46.8143 47.2022 46.7927C47.1832 46.7311 47.1974 46.8233 47.1995 46.7748C47.199 46.7622 47.199 46.749 47.1995 46.7363C47.2016 46.7074 47.2006 46.7105 47.1958 46.7474C47.1927 46.7258 47.209 46.6937 47.2148 46.6736C47.1964 46.7348 47.2222 46.6657 47.2322 46.6494C47.1157 46.68 46.9988 46.7105 46.8823 46.7411C46.9139 46.7611 46.9445 46.7817 46.9751 46.8038C46.9935 46.817 46.9951 46.8207 46.9761 46.8048C46.9903 46.817 47.0046 46.8286 47.0188 46.8407C47.0694 46.8849 47.1168 46.9324 47.1611 46.9824C47.1732 46.9967 47.1853 47.0109 47.1974 47.0251C47.228 47.0609 47.189 47.0114 47.2053 47.0351C47.2243 47.0631 47.2443 47.0899 47.2622 47.1179C47.3007 47.1774 47.335 47.2396 47.365 47.3039C47.3671 47.3081 47.3871 47.3508 47.375 47.3244C47.3613 47.2944 47.385 47.3502 47.3877 47.356C47.3998 47.3876 47.4103 47.4193 47.4203 47.4514C47.4414 47.5194 47.4567 47.5879 47.4699 47.658C47.4746 47.6838 47.4735 47.6801 47.4704 47.6564C47.4725 47.6748 47.4746 47.6933 47.4762 47.7117C47.4793 47.7449 47.4809 47.7786 47.4814 47.8118C47.483 47.8867 47.4783 47.961 47.4688 48.0347C47.6279 47.9915 47.7865 47.9488 47.9457 47.9056C47.6933 47.5157 47.4403 47.1252 47.1879 46.7353C47.1152 46.6231 46.9577 46.5661 46.838 46.6436C46.7258 46.7158 46.6684 46.8734 46.7464 46.9935H46.7469Z" fill="#333445"/>
<path d="M46.3496 57.8464C46.601 58.2079 46.8518 58.5688 47.1031 58.9303C47.0963 58.4034 46.8191 57.887 46.3839 57.5898" fill="#333445"/>
<path d="M46.1287 57.9755C46.38 58.337 46.6309 58.6979 46.8822 59.0594C46.9449 59.1501 47.0582 59.2138 47.171 59.1769C47.2769 59.1427 47.3612 59.0457 47.3586 58.9303C47.3459 58.3048 47.025 57.7242 46.5128 57.369C46.4027 57.2926 46.2241 57.3453 46.1629 57.4607C46.0939 57.5914 46.1371 57.7294 46.2546 57.8106C46.2689 57.8201 46.282 57.8306 46.2963 57.8401C46.3274 57.8606 46.2646 57.8137 46.2936 57.8374C46.3173 57.8569 46.3411 57.8764 46.3642 57.897C46.4101 57.9381 46.4538 57.9818 46.4944 58.0277C46.5149 58.0509 46.5339 58.0746 46.5539 58.0983C46.5734 58.122 46.5297 58.064 46.5576 58.1036C46.5655 58.1146 46.5734 58.1257 46.5813 58.1368C46.6182 58.19 46.6525 58.2458 46.683 58.3027C46.6978 58.3296 46.7115 58.3575 46.7247 58.3855C46.7305 58.3981 46.7357 58.4102 46.7415 58.4229C46.7268 58.3913 46.7336 58.4034 46.7431 58.4282C46.7652 58.4856 46.7847 58.5441 46.8005 58.6036C46.8164 58.6632 46.8274 58.7232 46.8385 58.7838C46.8453 58.8213 46.8343 58.739 46.8374 58.777C46.8385 58.7938 46.8411 58.8107 46.8422 58.8281C46.8448 58.8624 46.8464 58.8966 46.8469 58.9303C47.0061 58.8871 47.1647 58.8444 47.3238 58.8012C47.0724 58.4397 46.8216 58.0788 46.5703 57.7173C46.4939 57.6077 46.3426 57.5466 46.2204 57.6256C46.1113 57.6957 46.047 57.858 46.1287 57.9755Z" fill="#333445"/>
<path d="M54.3766 52.9105C54.5141 53.1529 54.6516 53.3948 54.7886 53.6372C54.7707 53.204 54.5494 52.783 54.2021 52.5232C54.2079 52.8821 54.4156 53.2309 54.728 53.4069" fill="#333445"/>
<path d="M54.1556 53.0396C54.2931 53.282 54.4306 53.5239 54.5676 53.7663C54.6214 53.8612 54.7505 53.9181 54.8564 53.8838C54.9602 53.8501 55.0498 53.7521 55.044 53.6372C55.0314 53.3737 54.9623 53.1197 54.8395 52.8863C54.7168 52.6529 54.5397 52.4611 54.3311 52.3025C54.2604 52.2492 54.1445 52.2603 54.0728 52.3025C53.9964 52.3472 53.9437 52.4337 53.9464 52.5232C53.9574 52.9743 54.2067 53.4022 54.5993 53.6277C54.7152 53.6941 54.8843 53.6588 54.9492 53.536C55.0134 53.4143 54.9813 53.2573 54.8575 53.1861C54.8422 53.1777 54.7468 53.1303 54.7468 53.1134C54.7768 53.1366 54.7811 53.1398 54.76 53.1224C54.7516 53.1155 54.7431 53.1082 54.7352 53.1008C54.7231 53.0897 54.711 53.0786 54.6989 53.0671C54.6857 53.0539 54.6072 52.9859 54.6109 52.9685C54.634 52.9985 54.6372 53.0028 54.6209 52.9806C54.6145 52.9717 54.6082 52.9627 54.6019 52.9532C54.5914 52.9374 54.5808 52.9211 54.5708 52.9042C54.5655 52.8953 54.5128 52.7946 54.5134 52.7941C54.5281 52.8299 54.5302 52.8352 54.5197 52.8094C54.5155 52.7994 54.5118 52.7888 54.5081 52.7783C54.5018 52.7604 54.4955 52.7419 54.4902 52.7235C54.4786 52.6834 54.4702 52.6434 54.4623 52.6028C54.458 52.5749 54.4586 52.5812 54.4644 52.6218C54.4633 52.6107 54.4617 52.5997 54.4612 52.5891C54.4591 52.567 54.4586 52.5449 54.458 52.5232C54.3295 52.597 54.2014 52.6708 54.0728 52.744C54.0613 52.7351 54.037 52.7151 54.0623 52.7361C54.0734 52.7451 54.0844 52.7546 54.0955 52.7641C54.115 52.7809 54.1345 52.7983 54.1529 52.8168C54.1882 52.851 54.222 52.8868 54.2536 52.9242C54.2604 52.9322 54.2789 52.9469 54.281 52.9574C54.2784 52.9469 54.252 52.9179 54.2726 52.9469C54.2878 52.968 54.3031 52.9891 54.3174 53.0107C54.3463 53.0539 54.3727 53.0987 54.3969 53.1445C54.4075 53.1651 54.418 53.1856 54.428 53.2067C54.4328 53.2172 54.4454 53.2341 54.4459 53.2462C54.4454 53.2346 54.4275 53.1998 54.4401 53.233C54.458 53.282 54.476 53.3305 54.4897 53.3811C54.5028 53.4285 54.5134 53.4765 54.5218 53.525C54.5281 53.5634 54.5234 53.5434 54.5218 53.5171C54.5223 53.5287 54.5244 53.5402 54.526 53.5513C54.5292 53.5803 54.5308 53.6087 54.5323 53.6377C54.6915 53.5945 54.8501 53.5518 55.0092 53.5086C54.8717 53.2662 54.7342 53.0244 54.5972 52.782C54.5313 52.6655 54.3621 52.616 54.2473 52.6903C54.1298 52.7662 54.085 52.9158 54.1556 53.0402V53.0396Z" fill="#333445"/>
<path d="M50.4771 50.8107C50.7 51.169 50.9229 51.5278 51.1463 51.8862C51.0547 51.4382 50.8117 51.023 50.4661 50.7242" fill="#333445"/>
<path d="M50.2564 50.9398C50.4793 51.2981 50.7022 51.6569 50.9256 52.0153C50.9931 52.1238 51.1264 52.1702 51.245 52.1201C51.3661 52.069 51.4194 51.9447 51.393 51.8182C51.2908 51.3297 51.0226 50.8713 50.6469 50.543C50.5462 50.455 50.3829 50.4365 50.2849 50.543C50.1963 50.6394 50.1774 50.8107 50.2849 50.905C50.3686 50.9782 50.4472 51.0573 50.5183 51.1426C50.5262 51.1521 50.5341 51.1616 50.542 51.1711C50.5726 51.208 50.523 51.1453 50.542 51.1706C50.5583 51.1932 50.5752 51.2154 50.591 51.238C50.6226 51.2839 50.6527 51.3302 50.6806 51.3787C50.7069 51.424 50.7317 51.4704 50.7549 51.5173C50.767 51.5421 50.7786 51.5674 50.7902 51.5927C50.8155 51.6485 50.777 51.5579 50.7902 51.5911C50.7944 51.6027 50.7992 51.6143 50.8039 51.6253C50.845 51.7323 50.8766 51.8419 50.9003 51.9536C51.0563 51.8877 51.2123 51.8224 51.3683 51.7565C51.1454 51.3982 50.9225 51.0394 50.699 50.681C50.6284 50.5672 50.4672 50.513 50.3491 50.5894C50.2353 50.6626 50.1816 50.8181 50.2575 50.9393L50.2564 50.9398Z" fill="#333445"/>
<path d="M46.2585 51.7734C46.4951 52.1291 46.7323 52.4853 46.9689 52.841C46.8998 52.3367 46.6411 51.8614 46.2554 51.5294" fill="#333445"/>
<path d="M46.0375 51.9025C46.2741 52.2582 46.5112 52.6144 46.7478 52.9701C46.819 53.077 46.946 53.126 47.0672 53.0749C47.1942 53.0212 47.2337 52.9016 47.2152 52.773C47.1383 52.2281 46.8511 51.7091 46.4359 51.3487C46.3347 51.2612 46.1719 51.2417 46.0739 51.3487C45.9854 51.4451 45.9659 51.6169 46.0739 51.7107C46.1661 51.7908 46.2515 51.8777 46.3284 51.9726C46.3437 51.9915 46.3547 52.0063 46.3337 51.9784C46.3421 51.9894 46.3505 52.0005 46.3584 52.0121C46.3769 52.0374 46.3948 52.0632 46.4122 52.0896C46.447 52.1417 46.4791 52.1955 46.5091 52.2508C46.5376 52.303 46.5629 52.3562 46.5877 52.4099C46.6077 52.4547 46.5798 52.3873 46.5903 52.4163C46.595 52.4294 46.6003 52.4421 46.6056 52.4553C46.6166 52.4848 46.6272 52.5143 46.6367 52.5438C46.6757 52.6629 46.7036 52.7856 46.7215 52.91C46.8775 52.8441 47.0334 52.7788 47.1894 52.7129C46.9528 52.3572 46.7157 52.001 46.4791 51.6453C46.4053 51.5342 46.2499 51.4757 46.1292 51.5536C46.018 51.6253 45.958 51.7845 46.0375 51.9035V51.9025Z" fill="#333445"/>
<path d="M8.56496 11.0242C8.64769 10.6089 8.84161 10.3486 8.85373 10.3323C8.93172 10.2311 9.08137 10.2074 9.18992 10.2796C9.29741 10.3518 9.31796 10.4899 9.24525 10.5942C9.1251 10.766 8.96807 11.2307 9.04132 11.6391C9.11456 12.0475 9.23892 12.3779 9.91763 12.5001C10.3487 12.5776 10.3908 12.9085 10.4219 13.1499C10.4562 13.4149 10.4988 13.7453 10.9093 14.1073C11.0711 14.2501 11.2782 14.3566 11.4974 14.4688C11.6059 14.5246 11.7198 14.5831 11.832 14.6495C12.0012 14.2907 12.1408 13.6757 12.1287 13.3085C12.1144 12.8537 11.9569 12.42 11.6739 12.0543L11.6128 11.9753L11.6323 11.8794C11.6671 11.7092 11.6813 11.5364 11.6776 11.3651C11.5922 11.393 11.4816 11.412 11.373 11.4109C10.9114 11.4067 10.5563 11.2286 10.3165 10.9414C9.90182 10.4466 9.99719 9.89599 10.0167 9.60775C10.0362 9.31951 10.0541 9.09029 10.0889 8.76517C10.1426 8.26088 10.2096 7.6333 10.159 7.4104C10.003 6.72379 9.64941 6.73539 9.51609 6.7396C9.38278 6.74382 9.27212 6.64581 9.26843 6.52145C9.26422 6.39656 9.36908 6.29223 9.50187 6.28801C9.83384 6.27747 10.4219 6.39656 10.6301 7.31502C10.6964 7.60695 10.6311 8.2182 10.5679 8.80943C10.5331 9.13403 10.5041 9.36904 10.4978 9.63093C10.4915 9.89283 10.4493 10.375 10.6964 10.6637C10.8514 10.845 11.0811 10.9435 11.402 10.9604C11.5185 10.9678 11.774 10.8529 11.9105 10.619C11.9911 10.4377 12.0317 10.2417 12.0254 10.043C12.0159 9.75055 11.9095 9.47285 11.7171 9.24047L11.5996 9.0982L11.7219 8.95856C11.9479 8.69983 12.067 8.37418 12.0565 8.04273C12.0475 7.76398 11.9506 7.4984 11.7762 7.27445L11.6681 7.13586L11.7819 7.00044C11.998 6.74434 12.1113 6.42396 12.1007 6.09884C12.0755 5.29736 11.5222 4.75514 10.756 4.77938C10.2269 4.79624 9.83015 5.01545 9.60936 5.52711C9.07399 5.38536 8.44693 5.85065 8.30729 6.31278C8.16238 6.79177 8.25091 7.36561 8.85742 8.09121C8.94752 8.19871 9.0429 8.29566 9.14249 8.37839C9.24156 8.46112 9.25052 8.60392 9.16199 8.69719C9.11615 8.74567 9.05344 8.77149 8.98968 8.7736C8.93014 8.77571 8.87006 8.75674 8.82211 8.71669C8.70144 8.61604 8.58551 8.49959 8.47802 8.37102C8.04434 7.85198 7.88942 7.2676 7.83515 6.87239C6.91932 7.4984 6.80182 8.65029 7.21863 9.28368C6.68378 10.0888 7.51529 11.0737 8.56496 11.0247V11.0242Z" fill="#76AAAF"/>
<path d="M11.265 14.8666C11.0205 14.7639 10.7849 14.62 10.5789 14.4382C10.0414 13.9645 9.98291 13.5082 9.94391 13.2062C9.9123 12.9602 9.90228 12.9586 9.82482 12.9444C9.43383 12.8743 9.16457 12.7478 8.97697 12.5866C8.74459 12.6883 8.51643 12.7341 8.30565 12.741C7.68544 12.7604 7.21066 12.469 7.18326 12.4522C7.07313 12.3832 7.04362 12.2425 7.11739 12.1387C7.19169 12.0348 7.34134 12.0069 7.45095 12.0754C7.4773 12.0918 8.05693 12.4406 8.69348 12.2114C8.6313 12.0796 8.5101 11.804 8.51801 11.4805C7.5068 11.5084 6.57148 10.9104 6.53091 9.91022C5.22409 11.8304 6.78121 13.6299 8.557 14.1389C9.03494 14.2759 9.37956 14.7549 9.3843 15.2534C9.38483 15.3404 9.37323 15.4716 9.32001 15.6181C9.50866 15.6534 9.73103 15.7176 9.95234 15.8199C9.89807 15.4779 9.94075 15.1912 9.94391 15.1723C9.96341 15.049 10.0867 14.9636 10.2174 14.981C10.3486 14.9989 10.4392 15.1132 10.4203 15.2365C10.4192 15.2423 10.3101 15.9616 10.6274 16.2978C10.796 16.4764 10.9641 16.7731 11.0126 17.1019C11.031 17.2252 10.9388 17.3401 10.807 17.3575C10.7981 17.3585 10.7897 17.3596 10.7807 17.3596C10.6595 17.3633 10.5525 17.2811 10.5357 17.1652C10.3934 16.2009 9.40432 16.067 9.05443 16.0322C8.89635 16.193 8.66502 16.3458 8.32357 16.4601C8.29933 16.4685 8.27509 16.4722 8.25085 16.4733C8.14862 16.4764 8.05219 16.4185 8.01636 16.3231C7.9721 16.2056 8.03796 16.0765 8.1639 16.0343C8.64289 15.8742 8.90478 15.5991 8.90162 15.2587C8.89899 14.9573 8.68031 14.6538 8.40366 14.5684C7.41406 14.2622 6.68794 13.7622 6.23898 13.0798C5.65829 14.5979 6.91663 15.2423 7.72127 15.1475C7.85143 15.1338 7.97315 15.2197 7.98948 15.3435C8.00529 15.4674 7.91097 15.5801 7.77923 15.5959C7.71389 15.6033 7.65013 15.608 7.58795 15.6102C7.31078 15.6191 7.0647 15.5743 6.85287 15.5042C6.66317 16.3426 7.52156 17.7411 9.08869 17.1662C9.28471 18.2654 10.9056 18.7739 11.8399 17.7295C12.7588 16.702 12.1212 15.2271 11.2629 14.8661L11.265 14.8666Z" fill="#76AAAF"/>
<path d="M12.4228 7.9131C12.4244 7.96948 12.4307 8.02534 12.4402 8.08067C12.6267 7.83248 12.8343 7.62539 12.9703 7.51526C13.0251 7.47099 13.0778 7.42937 13.1289 7.38879C13.6358 6.98726 13.8898 6.78544 13.8455 6.11043C13.8376 5.99029 13.9351 5.88595 14.0631 5.87805C14.1944 5.86962 14.3019 5.9613 14.3098 6.08197C14.3688 6.97672 13.9741 7.28973 13.4282 7.72287C13.3781 7.76292 13.326 7.80402 13.2722 7.84723C13.0678 8.01216 12.8085 8.30936 12.6425 8.59549L12.6451 8.60076L12.5967 8.6993C12.5029 8.89058 12.4586 9.09292 12.4655 9.30001C12.4718 9.49603 12.5229 9.68468 12.6188 9.86226L12.6657 9.94973L12.6278 10.0409C12.5271 10.2807 12.4802 10.5325 12.4881 10.7907C12.4944 10.9973 12.5413 11.2002 12.6172 11.3925C12.7858 11.177 13.0087 10.9925 13.2791 10.8508C13.6621 10.6495 14.1085 10.5552 14.4352 10.5979C14.9084 10.0662 15.5544 9.76056 16.2695 9.73316C16.2753 9.73316 16.2816 9.73316 16.2874 9.73263C16.6989 9.71946 17.5083 9.83644 17.8666 10.3202C18.0226 9.44703 17.7106 8.72933 16.8011 8.54385C16.9777 7.8251 16.5234 7.15536 16.1008 6.92614C15.9275 7.42673 15.6487 7.70179 15.3499 7.91889C15.4585 8.06644 15.7183 8.46165 15.7241 8.8832C15.7257 9.00282 15.625 9.10135 15.4985 9.10504C15.497 9.10504 15.4959 9.10504 15.4943 9.10504C15.3657 9.10715 15.2604 9.01072 15.2588 8.89005C15.2551 8.59338 15.0533 8.28617 14.9711 8.17393C14.5943 8.42265 14.2455 8.68981 14.0231 9.3643C13.9931 9.45599 13.9045 9.51553 13.8076 9.51869C13.7828 9.51975 13.757 9.51658 13.7317 9.50921C13.6089 9.4739 13.5404 9.35165 13.5784 9.23625C13.8666 8.36258 14.3619 8.03956 14.7993 7.75449C15.1703 7.5121 15.4927 7.30079 15.6708 6.75435L15.7067 6.57256C15.7283 6.46295 15.7378 6.35335 15.7341 6.24638C15.7077 5.40538 14.9568 4.74407 14.0616 4.77252C13.1663 4.80098 12.4591 5.50813 12.486 6.34913C12.4929 6.56202 12.5461 6.76805 12.6451 6.96144L12.6999 7.06894L12.6336 7.17064C12.4871 7.39511 12.4138 7.65226 12.4217 7.91468L12.4228 7.9131Z" fill="#76AAAF"/>
<path d="M18.0066 13.3111C17.8158 13.5414 17.6108 13.7295 17.5761 13.7606C17.5329 13.7996 17.4775 13.8201 17.4222 13.8217C17.3584 13.8238 17.2947 13.8017 17.2473 13.7553C17.1582 13.6684 17.1614 13.5303 17.2541 13.4465C17.3532 13.3569 17.5808 13.1314 17.7378 12.9175L17.7342 12.9132L17.8174 12.7831C18.0092 12.4843 18.1051 12.1429 18.0941 11.7967C18.0793 11.3298 17.8743 10.8951 17.5176 10.5684C17.5018 10.5531 17.4865 10.5383 17.4696 10.5241L17.4522 10.5088C17.1666 10.2801 16.7388 10.1547 16.2872 10.1684C15.9273 10.1821 15.2433 10.3049 14.7116 10.9715L14.6068 11.1027L14.4434 11.0452C14.2974 10.9941 13.9101 11.0178 13.5054 11.2307C13.2177 11.3814 12.881 11.6734 12.7477 12.1671C12.5385 12.9438 13.1366 13.3959 13.3479 13.5461C13.4506 13.6188 13.4991 13.7379 13.4359 13.8428C13.3943 13.9129 13.3189 13.9529 13.2399 13.955C13.1998 13.9566 13.1582 13.9476 13.1202 13.9281C12.9427 13.8365 12.7008 13.6468 12.5143 13.3717C12.4584 13.5424 12.4294 13.7205 12.4347 13.9013C12.4458 14.2485 12.5712 14.5779 12.7972 14.8545L12.8642 14.9367C13.0586 15.1533 13.3326 15.3646 13.5455 15.5285C13.6467 15.6064 13.7373 15.6765 13.8069 15.7355C14.456 16.2904 14.3291 16.9681 14.1715 17.2489C14.1309 17.3211 14.0529 17.3633 13.9723 17.3659C13.9333 17.367 13.8933 17.3591 13.8564 17.3406C13.7436 17.2848 13.6999 17.1536 13.7589 17.0471C13.7879 16.9928 14.0229 16.5128 13.4923 16.0586C13.428 16.0038 13.3437 15.9389 13.2493 15.8668C13.0876 15.7424 12.8931 15.5917 12.714 15.4268C12.705 15.49 12.6992 15.5532 12.7013 15.618C12.7066 15.7861 12.7498 15.9479 12.8299 16.0997L12.8842 16.2029L12.8241 16.3036C12.6966 16.5175 12.6334 16.7589 12.6407 17.0002C12.6644 17.7411 13.3247 18.3228 14.1135 18.2981C14.6652 18.2807 15.149 17.974 15.3761 17.4982L15.4161 17.4139L15.5089 17.3817C15.7681 17.2927 15.9863 17.1225 16.1328 16.9069C15.9331 16.8853 15.7449 16.8232 15.5769 16.7209C15.2612 16.5281 15.0594 16.2156 15.023 15.8631C14.9898 15.5395 15.0894 15.1775 15.198 14.8956C14.9988 14.9609 14.7938 14.9947 14.6073 15.0005C14.4081 15.0068 14.2305 14.9825 14.1019 14.9335C13.9829 14.8882 13.9259 14.7612 13.9744 14.649C14.0229 14.5373 14.1588 14.4835 14.2779 14.5283C14.5377 14.6269 15.3582 14.5383 15.6401 14.0404C15.9288 13.525 16.0053 13.2573 15.8972 12.9981C15.7934 12.7488 15.5916 12.6593 15.4409 12.6276C15.1643 12.5707 14.8439 12.6656 14.6062 12.8764C14.5124 12.9596 14.3654 12.9559 14.2774 12.869C14.1894 12.7815 14.1936 12.6429 14.2869 12.5597C14.5783 12.3009 14.9619 12.1645 15.3292 12.1776C15.4388 11.7714 15.3408 11.3793 15.3397 11.3751C15.3092 11.2581 15.3861 11.1396 15.511 11.1106C15.6343 11.0827 15.7613 11.1533 15.7918 11.2702C15.7976 11.2924 15.9162 11.7687 15.7813 12.2788C16.0305 12.3895 16.2245 12.5844 16.3299 12.8368C16.5538 13.3738 16.2856 13.8649 15.8293 14.6211C15.8277 14.6237 15.4335 15.3177 15.4852 15.8183C15.5078 16.0385 15.6311 16.2383 15.8303 16.3537C17.1118 17.0966 18.6331 15.0152 18.0018 13.3111H18.0066Z" fill="#76AAAF"/>
<path d="M12.1027 9.47179C12.2397 9.24046 12.4083 9.05287 12.6186 8.90322C13.3495 8.38207 14.3675 8.50063 14.954 9.18039C15.3771 9.67097 15.4741 10.2385 15.326 10.8566C15.2291 11.2618 15.0199 11.6128 14.7717 11.9416C14.3944 12.4427 13.9523 12.8832 13.4854 13.299C13.0402 13.6958 12.5822 14.0783 12.1301 14.4672C12.1217 14.4746 12.1122 14.4809 12.0985 14.4914C11.961 14.3745 11.8234 14.258 11.6875 14.141C11.1916 13.7147 10.6847 13.3 10.2226 12.8353C9.81579 12.4264 9.4248 12.0043 9.13656 11.4995C8.92631 11.1317 8.80722 10.7391 8.80986 10.3107C8.8146 9.58614 9.30624 8.90375 9.9939 8.67611C10.7933 8.41105 11.6232 8.71036 12.069 9.42436C12.0774 9.43754 12.0869 9.44966 12.1032 9.47232L12.1027 9.47179Z" fill="#F1A17F"/>
</svg>
