<svg width="59" height="60" viewBox="0 0 59 60" fill="none" xmlns="http://www.w3.org/2000/svg">
<path d="M22.8378 16.8705H39.4203C50.2267 16.8705 59 25.6438 59 36.4502V51.0665H3.25806V36.4502C3.25806 25.6438 12.0314 16.8705 22.8378 16.8705Z" fill="#F1A17F"/>
<path d="M33.1693 6.2406C31.5423 7.15953 29.9808 8.16892 29.4414 10.0746C29.1469 11.1145 29.377 12.384 30.2689 12.9946C30.5988 13.2203 31.0256 13.3757 31.1741 13.7464C31.3098 14.0842 31.2493 14.5734 31.7223 14.6565C32.061 14.716 32.5144 14.3512 32.7622 14.1604" fill="#161627"/>
<path d="M36.8173 19.433C34.4755 19.7924 32.0565 20.0565 29.7142 20.4159C29.3037 19.8524 29.611 19.0466 30.0471 18.5023C30.4827 17.958 31.056 17.4737 31.2207 16.7967C31.4159 15.9943 30.9773 15.1742 30.9827 14.3487C30.9891 13.4096 31.6371 12.5084 32.5251 12.2035C33.5635 11.8471 34.5896 12.204 35.33 13.0148C36.0705 13.8256 36.3832 14.9387 36.5307 16.0268C36.6777 17.1148 36.5764 18.3622 36.8173 19.4335V19.433Z" fill="#161627"/>
<path d="M35.0504 15.7878L35.2363 20.3461C35.2363 20.3461 39.9558 20.0752 39.9248 19.9513C39.8938 19.8274 39.9248 11.734 39.9248 11.734L35.0499 15.7878H35.0504Z" fill="#F4BD8C"/>
<path d="M11.7768 24.8851C11.6249 24.9072 11.5108 25.0311 11.412 25.1486C10.3692 26.3862 9.47924 27.7914 9.08197 29.3603C9.01117 29.6391 8.96938 29.9714 9.16605 30.1814C9.41828 30.4508 9.86864 30.3259 10.1872 30.1406C11.0078 29.6636 11.6564 28.8986 11.9922 28.0111C12.2065 27.4447 12.2926 26.8316 12.2493 26.2279C12.2311 25.9756 12.1908 24.8246 11.7768 24.8851Z" fill="white"/>
<path d="M32.4823 7.43289C32.0059 7.90588 31.6145 8.47031 31.4218 9.10063C31.2709 9.59377 31.3387 10.2251 31.3549 10.7408C31.3746 11.3712 31.4395 11.999 31.5152 12.6244C31.6249 13.5276 31.7611 14.4426 32.1372 15.2711C32.5148 16.102 33.3723 17.1753 34.3649 17.2397C35.244 17.2962 36.1246 16.6463 36.8188 16.1807C38.1341 15.2991 39.2123 14.1565 39.7708 12.6741C40.0078 12.0447 40.0383 11.4075 40.2615 10.7708C40.5393 9.97777 40.7714 9.15865 40.7984 8.31396C40.8314 7.30063 40.5265 6.2047 39.7703 5.49326C38.9109 4.68496 37.6537 4.99962 36.6453 5.31183C35.5174 5.66092 34.3821 6.04098 33.3973 6.69195C33.0777 6.90287 32.765 7.15166 32.4818 7.43289H32.4823Z" fill="#F4BD8C"/>
<g opacity="0.37">
<path d="M37.9379 15.7248C38.0195 15.6644 38.1001 15.6019 38.1782 15.537C38.0991 15.5941 38.018 15.6575 37.9379 15.7248Z" fill="#B4634D"/>
</g>
<path d="M12.9789 27.0441L8.87047 23.9904C8.54646 23.6683 8.13887 23.4426 7.69342 23.3394L4.74193 22.656C4.63032 22.6304 4.51429 22.6722 4.44546 22.7636C4.36777 22.8664 4.36728 23.0075 4.44349 23.1108L4.61312 23.3399C4.87911 23.6993 5.26704 23.9505 5.70413 24.0459L6.49375 24.7539L4.48479 25.3218L1.38728 24.7559L0.383292 24.6285C0.256934 24.6123 0.132541 24.6684 0.0602662 24.7731C-0.0395425 24.9181 -0.0129924 25.1153 0.122216 25.2279L4.75816 27.757L5.7233 28.2335L10.4497 30.5689" fill="#F4BD8C"/>
<path d="M23.3328 37.8809C27.1374 38.2713 31.0545 37.3514 34.3133 35.3572C35.5655 34.5912 36.7436 33.896 37.307 32.5026C38.0126 30.7572 38.1271 28.7556 37.6468 26.9379C37.2205 25.3247 36.3207 23.8433 35.1034 22.7041C33.8998 21.5777 32.3225 22.3069 31.3613 23.4052C30.6208 24.2514 30.1385 25.2913 29.4556 26.1841C27.6339 28.5658 25.032 30.0546 23.5452 30.3043C23.237 30.1588 22.9287 30.0138 22.6199 29.8682C20.6773 28.9527 18.7338 28.0382 16.7892 27.1267C15.7892 26.6581 14.7891 26.1896 13.7876 25.7239C13.2256 25.4624 11.9782 24.9102 11.9782 24.9102C11.9866 25.2451 12.1828 26.9915 11.4202 28.2477C10.4919 29.7768 9.27112 30.3402 9.27112 30.3402C9.27112 30.3402 9.70624 30.6426 9.83703 30.7281C10.5588 31.2016 11.2968 31.6515 12.0358 32.0979C14.1455 33.3728 16.2843 34.605 18.4624 35.7589C19.4314 36.2722 20.4094 36.7742 21.4119 37.2196C22.0107 37.4856 22.6715 37.8126 23.3328 37.8804V37.8809Z" fill="white"/>
<path d="M32.9863 51.2878L35.9535 38.2935C37.7609 38.7271 41.8236 38.8623 42.9913 38.7615C43.5882 38.7099 44.5617 38.441 45.0642 38.7384C45.9339 39.2542 46.729 40.7115 47.2688 41.5439C47.9183 42.5444 48.4773 43.603 48.94 44.7024C49.8796 46.936 50.3801 48.8653 50.4563 51.2883" fill="#FFC961"/>
<path d="M32.8496 41.9746C32.8477 42.1427 32.9372 42.2971 33.0257 42.4402C33.9185 43.8823 34.8222 45.0396 36.1512 46.0933C36.3208 46.228 36.991 46.5112 37.1911 46.4281C37.3278 46.3716 36.606 43.9359 35.6566 43.0936C35.2092 42.6968 34.7667 42.2863 34.2357 42.011C33.9505 41.863 32.858 41.2686 32.8496 41.9746Z" fill="white"/>
<path d="M36.0341 41.4081L30.1331 42.8074C29.724 42.9043 29.3661 43.1506 29.1296 43.4977L27.9231 45.2668L26.8468 48.0127C26.8468 48.0127 27.4166 48.4547 27.8577 47.9168L28.6778 46.1473L30.1764 44.6807L29.1208 46.6144C29.0111 47.3239 28.5588 49.5752 28.6134 49.9022C28.6537 50.1446 29.3818 49.9814 29.5461 49.5207C29.7088 49.6264 30.1479 49.708 30.5289 48.9651L30.553 48.8382C30.553 48.8382 31.3033 48.9931 31.5835 48.3662L32.2335 46.8696L33.6333 45.958L38.6788 45.4895" fill="#F4BD8C"/>
<path d="M30.6194 48.8756L31.3023 46.5313L32.3309 45.5121" stroke="#C69267" stroke-width="0.0491668" stroke-miterlimit="10"/>
<path d="M29.5457 49.5246L30.4115 46.2619L31.3024 45.0691" stroke="#C69267" stroke-width="0.0491668" stroke-miterlimit="10"/>
<path d="M35.0007 19.817L41.7365 18.2501C42.3575 19.1326 42.9785 20.0151 43.5995 20.8977C43.8399 21.2389 43.9274 21.3928 44.3266 21.5418C44.7859 21.7129 45.2392 21.8973 45.6836 22.1028C46.5726 22.5133 47.4281 22.9966 48.2383 23.5468C48.8741 23.9785 49.4887 24.4574 49.9621 25.0626C50.5748 25.8454 50.8373 26.8961 51.0296 27.8548C51.1815 28.6125 51.329 29.3711 51.478 30.1298C51.9008 32.2808 52.3217 34.4319 52.742 36.5834C52.9795 37.7973 53.2165 39.0108 53.454 40.2247C53.8586 42.2966 52.4028 44.2696 50.3039 44.4953C48.552 44.6831 46.8066 44.9462 45.0636 45.1994C42.7258 45.5391 39.526 46.0677 37.1915 46.4286C37.1915 46.4286 37.0804 45.1871 36.0091 43.7962C34.8133 42.2435 33.2174 41.6363 32.9868 41.6535C34.3522 41.004 41.2198 39.0939 42.4126 38.821C42.2779 38.852 37.7707 39.1012 35.9545 38.2939L35.0326 34.7844L31.3181 25.0769C31.1971 23.8988 31.8235 22.77 32.887 22.2488L34.4741 21.4715L35.0012 19.818L35.0007 19.817Z" fill="white"/>
<path d="M45.9044 15.4397C44.0361 17.5273 40.9223 18.016 39.0786 20.1258C38.5505 19.3288 38.7157 18.2776 38.9026 17.34C39.0894 16.4024 39.2575 15.3527 38.7339 14.5527C38.3917 14.0306 37.7889 13.6839 37.5741 13.0974C37.3204 12.4046 37.5638 11.498 37.5043 10.7644C37.4394 9.97234 37.193 9.16256 36.5976 8.6055C35.9122 7.96436 34.8871 7.78441 33.9633 7.95109C33.1535 8.09711 31.8014 8.60796 31.2566 9.26876C30.5472 10.1297 30.9882 7.80457 31.9258 6.95153C32.3186 6.59408 35.2121 5.18791 36.5347 4.90127C38.1036 4.56104 39.7768 4.70854 40.8879 5.93033C42.0212 7.17671 42.6835 8.72694 43.3163 10.2668C44.0494 12.0496 45.1718 13.6569 45.9044 15.4397Z" fill="#161627"/>
<path d="M39.4896 13.2852C40.0162 13.7651 40.8313 13.9082 41.4818 13.6171C42.1323 13.326 42.5719 12.6092 42.5163 11.8987C42.4607 11.1883 41.9022 10.5412 41.2035 10.4021C40.5049 10.2625 39.7305 10.6573 39.4503 11.3127C39.2693 11.7355 39.0874 12.1485 39.3062 12.5531C39.3627 12.6574 39.4365 12.7537 39.4773 12.8649C39.5181 12.9765 39.5687 13.1967 39.4896 13.2857V13.2852Z" fill="#F4BD8C"/>
<path d="M32.4705 11.8874C32.1058 12.1179 32.1653 12.6375 32.5683 12.7834C32.644 12.811 32.6765 12.6905 32.6013 12.663C32.299 12.5534 32.2626 12.1661 32.5329 11.995C32.6008 11.9523 32.5379 11.8442 32.47 11.8874H32.4705Z" fill="#C69267"/>
<path d="M38.73 15.0508C38.73 13.9219 39.5953 13.0069 40.6627 13.0069C41.7301 13.0069 42.5955 13.9219 42.5955 15.0508" fill="#76AAAF"/>
<path d="M11.7713 6.32318L14.0138 10.8087L8.40735 7.3429L11.7713 6.32318Z" fill="#F4EBE7"/>
<path d="M14.3079 5.88313C15.3517 6.30891 16.1816 7.1477 16.5961 8.19692C17.0111 7.1477 17.8415 6.30891 18.8843 5.88313C17.8415 5.45734 17.0115 4.61856 16.5961 3.56934C16.1821 4.61856 15.3517 5.45734 14.3079 5.88313Z" fill="#FFC961"/>
<path d="M12.866 2.63071C13.3215 2.63071 13.6908 2.26146 13.6908 1.80596C13.6908 1.35046 13.3215 0.981201 12.866 0.981201C12.4105 0.981201 12.0413 1.35046 12.0413 1.80596C12.0413 2.26146 12.4105 2.63071 12.866 2.63071Z" fill="#76AAAF"/>
<path d="M10.5707 50.4912C10.5741 50.5197 10.5795 50.5482 10.5869 50.5758C10.5918 50.561 10.5972 50.5468 10.6036 50.533C10.5928 50.5187 10.582 50.5045 10.5707 50.4907V50.4912Z" fill="#76AAAF"/>
<path d="M13.5172 54.8199C13.4764 54.8607 13.4071 54.8779 13.3505 54.8302C13.3343 54.8164 13.3186 54.8022 13.3033 54.7874C13.3205 54.8189 13.3382 54.8498 13.3579 54.8803C13.384 54.9245 13.4154 54.9648 13.4518 55.0007C13.6012 55.0287 13.6641 54.983 13.6405 54.8626C13.6405 54.8503 13.6395 54.8385 13.6386 54.8267C13.5968 54.8341 13.556 54.8307 13.5172 54.8194V54.8199Z" fill="#76AAAF"/>
<path d="M13.3923 54.338C13.4194 54.4122 13.4892 54.5872 13.5629 54.5528C13.5477 54.5095 13.498 54.3527 13.4405 54.2279C13.4125 54.2053 13.383 54.1846 13.3545 54.1674C13.3604 54.2244 13.3722 54.2814 13.3928 54.338H13.3923Z" fill="#76AAAF"/>
<path d="M10.8631 51.3791C10.8631 51.3791 10.8636 51.3791 10.8641 51.3786C10.8243 51.3413 10.7879 51.3005 10.754 51.2617C10.7943 51.3374 10.8351 51.3919 10.8631 51.3796V51.3791Z" fill="#76AAAF"/>
<path d="M11.1964 51.1568C11.2219 51.0575 11.1438 50.8958 11.0976 50.8142C11.0691 50.7641 10.9998 50.6456 10.9211 50.6033C10.9811 50.7134 11.0303 50.8304 11.0652 50.9533C11.0666 50.9587 11.0681 50.9646 11.0701 50.9705C11.1099 51.0054 11.1158 51.055 11.1001 51.0973C11.1109 51.1519 11.1192 51.2094 11.1217 51.2669C11.1507 51.2634 11.1767 51.2339 11.1969 51.1563L11.1964 51.1568Z" fill="#76AAAF"/>
<path d="M7.72038 48.577C7.70711 48.4281 7.57047 48.2261 7.48986 48.1022C7.482 48.0899 7.46873 48.0673 7.453 48.0413C7.4471 48.0462 7.4412 48.0501 7.43531 48.057C7.38812 48.1106 7.46676 48.5224 7.54098 48.4787C7.66878 48.4035 7.78281 48.604 7.65501 48.6792C7.63486 48.691 7.6152 48.6994 7.59603 48.7058C7.61766 48.7328 7.64027 48.7589 7.66288 48.7825C7.70564 48.753 7.73071 48.6891 7.72038 48.5765V48.577Z" fill="#76AAAF"/>
<path d="M20.9831 54.5386C20.7904 54.5548 20.6316 54.453 20.5137 54.2992C20.5378 54.3469 20.5643 54.3936 20.5948 54.4388C20.695 54.5892 20.9305 54.9028 21.0735 54.5494C21.0878 54.5145 21.0941 54.4717 21.0981 54.427C21.0902 54.4914 21.0489 54.5332 20.9836 54.5391L20.9831 54.5386Z" fill="#76AAAF"/>
<path d="M23.7434 53.4874C23.7704 53.5616 23.8402 53.7366 23.914 53.7022C23.8987 53.6589 23.8491 53.5021 23.7916 53.3773C23.7636 53.3547 23.7341 53.334 23.7056 53.3168C23.7115 53.3738 23.7233 53.4309 23.7439 53.4874H23.7434Z" fill="#76AAAF"/>
<path d="M13.9916 46.3971C13.9508 46.4379 13.8815 46.4551 13.825 46.4074C13.8088 46.3936 13.7931 46.3794 13.7778 46.3646C13.795 46.3961 13.8127 46.427 13.8324 46.4575C13.8584 46.5018 13.8899 46.5421 13.9263 46.5779C14.0757 46.606 14.1386 46.5602 14.115 46.4398C14.115 46.4275 14.114 46.4157 14.113 46.4039C14.0713 46.4113 14.0305 46.4079 13.9916 46.3966V46.3971Z" fill="#76AAAF"/>
<path d="M24.4091 58.2069C24.4087 58.202 24.4072 58.1971 24.4062 58.1917C24.3585 58.1775 24.3108 58.1553 24.2651 58.1268C24.3069 58.1627 24.3546 58.1907 24.4087 58.2069H24.4091Z" fill="#76AAAF"/>
<path d="M24.6467 58.2935C24.6983 58.2719 24.7302 58.2222 24.7204 58.1387C24.7007 58.1613 24.6737 58.1795 24.6393 58.1922C24.6437 58.2257 24.6457 58.2596 24.6467 58.2935Z" fill="#76AAAF"/>
<path d="M17.6581 51.6796C17.6522 51.6845 17.6463 51.6884 17.6404 51.6953C17.5932 51.7489 17.6718 52.1608 17.7461 52.117C17.8739 52.0418 17.9879 52.2423 17.8601 52.3175C17.8399 52.3293 17.8203 52.3377 17.8011 52.3441C17.8227 52.3711 17.8453 52.3972 17.868 52.4213C17.9107 52.3918 17.9358 52.3279 17.9255 52.2153C17.9122 52.0664 17.7755 51.8644 17.6949 51.7405C17.6871 51.7282 17.6738 51.7056 17.6581 51.6796Z" fill="#76AAAF"/>
<path d="M21.2142 50.5281C21.2142 50.5281 21.2147 50.5281 21.2152 50.5276C21.1754 50.4902 21.139 50.4494 21.1051 50.4106C21.1459 50.4863 21.1862 50.5408 21.2142 50.5285V50.5281Z" fill="#76AAAF"/>
<path d="M13.8673 45.9147C13.8943 45.9889 13.9641 46.1639 14.0379 46.1295C14.0231 46.0862 13.973 45.9289 13.9155 45.8046C13.8875 45.782 13.858 45.7613 13.8295 45.7441C13.8354 45.8012 13.8472 45.8582 13.8678 45.9147H13.8673Z" fill="#76AAAF"/>
<path d="M20.7427 54.1127C20.7019 54.0169 20.6557 53.9235 20.5997 53.8345C20.5854 53.8124 20.5618 53.7667 20.5323 53.7259C20.5446 53.7893 20.5613 53.8606 20.5849 53.9308C20.6218 54.0036 20.6759 54.067 20.7432 54.1127H20.7427Z" fill="#76AAAF"/>
<path d="M24.1151 57.439C24.2709 57.5206 24.4007 57.64 24.4926 57.7845C24.4892 57.7781 24.4862 57.7717 24.4837 57.7663C24.4405 57.668 24.3884 57.5727 24.3294 57.4832C24.3211 57.4709 24.2984 57.4336 24.2719 57.3928C24.2046 57.3584 24.1392 57.3618 24.1151 57.4385V57.439Z" fill="#76AAAF"/>
<path d="M20.6361 53.3901C20.8042 53.5155 20.9335 53.6791 21.0131 53.8654C20.9777 53.7642 20.9315 53.6664 20.8745 53.5749C20.8401 53.5204 20.7772 53.3852 20.7167 53.3719L20.6361 53.3901Z" fill="#76AAAF"/>
<path d="M14.5949 49.3466C14.5669 49.324 14.5374 49.3033 14.5089 49.2861C14.5148 49.3431 14.5266 49.4002 14.5472 49.4567C14.5743 49.5309 14.6441 49.7059 14.7178 49.6715C14.7031 49.6282 14.6529 49.4714 14.5954 49.3466H14.5949Z" fill="#76AAAF"/>
<path d="M17.0286 56.0092C16.9785 56.0549 17.0085 56.223 17.0144 56.2869C17.0232 56.3793 17.0345 56.4722 17.0542 56.5632C17.1196 56.5573 17.1894 56.6015 17.1825 56.6742C17.2395 56.6674 17.2587 56.6138 17.2597 56.5479C17.2277 56.4521 17.1967 56.3734 17.1874 56.3489C17.1417 56.2329 17.0876 56.1193 17.0282 56.0092H17.0286Z" fill="#76AAAF"/>
<path d="M23.8677 53.9693C23.8269 54.0101 23.7576 54.0273 23.7011 53.9796C23.6849 53.9658 23.6692 53.9516 23.6539 53.9368C23.6711 53.9683 23.6888 53.9992 23.7085 54.0297C23.7345 54.074 23.766 54.1143 23.8024 54.1501C23.9518 54.1782 24.0147 54.1324 23.9916 54.012C23.9916 53.9997 23.9906 53.9879 23.9896 53.9761C23.9479 53.9835 23.9071 53.9806 23.8682 53.9688L23.8677 53.9693Z" fill="#76AAAF"/>
<path d="M21.4159 50.1032C21.4173 50.1086 21.4188 50.1145 21.4208 50.1204C21.4606 50.1553 21.4665 50.2049 21.4508 50.2472C21.4616 50.3018 21.4699 50.3593 21.4724 50.4168C21.5014 50.4133 21.5279 50.3838 21.5476 50.3062C21.5731 50.2069 21.495 50.0452 21.4483 49.9636C21.4198 49.9135 21.3505 49.795 21.2719 49.7527C21.3318 49.8628 21.381 49.9798 21.4159 50.1027V50.1032Z" fill="#76AAAF"/>
<path d="M18.4712 47.3399C18.458 47.191 18.3213 46.989 18.2407 46.8651C18.2329 46.8529 18.2196 46.8302 18.2039 46.8042C18.198 46.8091 18.1921 46.813 18.1862 46.8199C18.139 46.8735 18.2176 47.2854 18.2918 47.2421C18.4196 47.1669 18.5337 47.3675 18.4059 47.4427C18.3857 47.4545 18.3661 47.4628 18.3469 47.4692C18.3685 47.4962 18.3911 47.5223 18.4137 47.5459C18.4565 47.5164 18.4816 47.4525 18.4712 47.3399Z" fill="#76AAAF"/>
<path d="M10.2737 45.5908C10.2771 45.6193 10.2825 45.6478 10.2899 45.6758C10.2948 45.661 10.3002 45.6468 10.3066 45.633C10.2958 45.6188 10.285 45.605 10.2737 45.5908Z" fill="#76AAAF"/>
<path d="M20.5722 59.2119C20.5722 59.2119 20.5736 59.2154 20.5741 59.2168C20.579 59.2267 20.5839 59.236 20.5889 59.2458C20.5761 59.1829 20.5574 59.122 20.5338 59.063C20.5417 59.1136 20.5545 59.1633 20.5722 59.2119Z" fill="#76AAAF"/>
<path d="M20.841 59.5504C20.8572 59.5573 20.8715 59.5593 20.8833 59.5578C20.9118 59.4123 20.8622 59.1818 20.8297 59.0604C20.7653 58.9046 20.6793 58.7375 20.6051 58.7104C20.7752 58.9533 20.8602 59.2477 20.8415 59.5504H20.841Z" fill="#76AAAF"/>
<path d="M20.9213 49.6401C20.9247 49.6686 20.9301 49.6972 20.9375 49.7247C20.9424 49.7099 20.9478 49.6957 20.9542 49.6819C20.9434 49.6677 20.9326 49.6534 20.9213 49.6396V49.6401Z" fill="#76AAAF"/>
<path d="M14.6716 49.9386C14.6308 49.9794 14.5615 49.9966 14.5049 49.9489C14.4887 49.9351 14.473 49.9209 14.4578 49.9061C14.475 49.9376 14.4927 49.9685 14.5123 49.999C14.5384 50.0433 14.5698 50.0836 14.6062 50.1194C14.7556 50.1475 14.8185 50.1017 14.7954 49.9813C14.7954 49.969 14.7945 49.9572 14.7935 49.9454C14.7517 49.9528 14.7109 49.9494 14.6721 49.9381L14.6716 49.9386Z" fill="#76AAAF"/>
<path d="M10.8995 46.2563C10.9251 46.157 10.8469 45.9953 10.8007 45.9137C10.7722 45.8636 10.7029 45.7456 10.6243 45.7034C10.6847 45.8135 10.7334 45.9304 10.7683 46.0533C10.7698 46.0587 10.7712 46.0646 10.7732 46.0705C10.813 46.1054 10.8189 46.1551 10.8032 46.1973C10.814 46.2519 10.8223 46.3094 10.8248 46.3669C10.8538 46.3635 10.8803 46.334 10.9 46.2563H10.8995Z" fill="#76AAAF"/>
<path d="M10.5666 46.4787C10.5666 46.4787 10.5671 46.4787 10.5676 46.4782C10.5278 46.4408 10.4914 46.4 10.4575 46.3612C10.4983 46.4364 10.5386 46.4915 10.5661 46.4792L10.5666 46.4787Z" fill="#76AAAF"/>
<path d="M20.5165 58.3348C20.4772 58.3825 20.4433 58.4336 20.4143 58.4872C20.4128 58.4882 20.4118 58.4892 20.4103 58.4902C20.3897 58.471 20.3681 58.4528 20.346 58.4351C20.2678 58.3727 20.1553 58.411 20.1489 58.5167C20.1484 58.5265 20.1479 58.5359 20.1474 58.5457C20.1189 58.5639 20.0973 58.5934 20.0938 58.6351C20.0653 58.9576 20.1376 59.2835 20.312 59.5577C20.4217 59.7297 20.6581 60.0532 20.9038 59.946C20.9702 59.917 21.0154 59.8639 21.0469 59.7976C21.186 59.7238 21.1928 59.5302 21.1687 59.3808C21.1471 59.2461 21.0749 58.9605 20.953 58.7374C20.8832 58.5914 20.7913 58.4567 20.6797 58.3343C20.6404 58.2916 20.5553 58.2876 20.5165 58.3343V58.3348ZM20.574 59.2171C20.574 59.2171 20.5725 59.2137 20.5721 59.2122C20.5544 59.164 20.5416 59.1139 20.5337 59.0633C20.5573 59.1222 20.576 59.1832 20.5888 59.2461C20.5839 59.2363 20.5789 59.2269 20.574 59.2171ZM20.8291 59.0608C20.862 59.1822 20.9117 59.4127 20.8827 59.5582C20.8709 59.5597 20.8566 59.5577 20.8404 59.5508C20.8591 59.2481 20.7746 58.9536 20.604 58.7108C20.6782 58.7379 20.7642 58.905 20.8286 59.0608H20.8291Z" fill="#76AAAF"/>
<path d="M17.3058 55.8867C17.2669 55.8375 17.2183 55.7898 17.1637 55.7569C17.1062 55.6625 17.0359 55.5809 16.9455 55.551C16.7892 55.4989 16.6644 55.6153 16.6132 55.7535C16.5611 55.8945 16.5793 56.0621 16.6211 56.215C16.6216 56.387 16.6575 56.5875 16.7617 56.7153C16.7282 56.9405 16.8885 57.1149 17.0826 57.1543C17.174 57.259 17.2969 57.3523 17.4252 57.3224C17.6149 57.2781 17.6356 57.0697 17.5904 56.8318C17.6946 56.5232 17.498 56.1275 17.3058 55.8867ZM17.1829 56.6741C17.1893 56.6008 17.12 56.5571 17.0546 56.563C17.035 56.472 17.0236 56.3791 17.0148 56.2867C17.0089 56.2233 16.9789 56.0552 17.0291 56.009C17.0885 56.1186 17.1426 56.2322 17.1883 56.3487C17.1976 56.3732 17.2286 56.4514 17.2606 56.5477C17.2596 56.6136 17.2399 56.6667 17.1834 56.6741H17.1829Z" fill="#76AAAF"/>
<path d="M20.2992 53.3905C20.2348 53.3752 20.1513 53.4106 20.1429 53.4971C20.1115 53.8078 20.1645 54.1164 20.3041 54.3966C20.4059 54.6016 20.5892 54.8827 20.8271 54.9466C21.4641 55.1176 21.3348 54.0599 21.2149 53.7458C21.1343 53.535 20.9878 53.2342 20.7706 53.1354C20.5578 53.0381 20.3612 53.1909 20.2997 53.3915L20.2992 53.3905ZM21.0734 54.549C20.9303 54.9024 20.6944 54.5888 20.5946 54.4384C20.5646 54.3932 20.5376 54.3465 20.5135 54.2988C20.6315 54.4521 20.7902 54.5539 20.9829 54.5382C21.0483 54.5327 21.0896 54.4905 21.0974 54.4261C21.0935 54.4708 21.0871 54.5136 21.0729 54.5485L21.0734 54.549ZM20.5995 53.8348C20.6556 53.9238 20.7023 54.0172 20.7426 54.113C20.6752 54.0673 20.6212 54.0039 20.5843 53.9311C20.5607 53.8608 20.544 53.7896 20.5317 53.7262C20.5612 53.767 20.5848 53.8127 20.599 53.8348H20.5995ZM20.8743 53.5753C20.9318 53.6667 20.978 53.764 21.0129 53.8658C20.9333 53.6795 20.804 53.5153 20.6359 53.3905L20.7165 53.3723C20.777 53.3856 20.8399 53.5207 20.8743 53.5753Z" fill="#76AAAF"/>
<path d="M17.9051 51.4779C17.8634 51.4298 17.8177 51.3855 17.7675 51.3467C17.7198 51.3098 17.6717 51.2877 17.6245 51.2794C17.564 51.2327 17.4977 51.2032 17.4259 51.2046C17.306 51.2071 17.2411 51.2803 17.2077 51.3747C17.1526 51.3 17.0003 51.3226 16.9968 51.443C16.9826 51.9036 17.2165 52.5607 17.7262 52.6728C17.8216 52.7475 17.9263 52.8109 18.0388 52.8596C18.1013 52.8866 18.1932 52.8694 18.2074 52.7888C18.2163 52.7401 18.2222 52.6895 18.2266 52.6379C18.259 52.5868 18.2753 52.5204 18.2733 52.4472C18.2669 52.2432 18.145 51.6809 17.9056 51.4779H17.9051ZM17.8673 52.4216C17.8447 52.398 17.8221 52.3715 17.8004 52.3445C17.8196 52.3381 17.8393 52.3297 17.8594 52.3179C17.9872 52.2427 17.8737 52.0422 17.7454 52.1174C17.6712 52.1611 17.5925 51.7492 17.6397 51.6957C17.6456 51.6888 17.6515 51.6849 17.6574 51.6799C17.6731 51.706 17.6859 51.7286 17.6943 51.7409C17.7749 51.8647 17.9115 52.0668 17.9248 52.2157C17.9351 52.3282 17.9101 52.3921 17.8673 52.4216Z" fill="#76AAAF"/>
<path d="M18.5851 47.9837C18.6475 48.0107 18.7394 47.9935 18.7537 47.9129C18.7625 47.8643 18.7684 47.8136 18.7729 47.762C18.8053 47.7109 18.8215 47.6446 18.8195 47.5713C18.8132 47.3678 18.6913 46.8051 18.4519 46.6026C18.4101 46.5544 18.3644 46.5102 18.3143 46.4713C18.2666 46.4345 18.2184 46.4123 18.1712 46.404C18.1108 46.3573 18.0444 46.3278 17.9727 46.3293C17.8527 46.3317 17.7879 46.405 17.7544 46.4993C17.6994 46.4246 17.547 46.4472 17.5436 46.5677C17.5293 47.0282 17.7633 47.6854 18.273 47.7974C18.3683 47.8721 18.473 47.9355 18.5856 47.9842L18.5851 47.9837ZM18.3467 47.4686C18.3659 47.4622 18.3855 47.4539 18.4057 47.4421C18.5335 47.3669 18.4199 47.1663 18.2917 47.2415C18.2174 47.2853 18.1388 46.8734 18.186 46.8193C18.1919 46.8124 18.1978 46.8085 18.2037 46.8036C18.2194 46.8296 18.2322 46.8522 18.2405 46.8645C18.3212 46.9884 18.4578 47.1904 18.4711 47.3393C18.4814 47.4524 18.4563 47.5163 18.4136 47.5453C18.3909 47.5217 18.3683 47.4951 18.3467 47.4686Z" fill="#76AAAF"/>
<path d="M24.059 56.9729C23.887 56.9975 23.8275 57.1784 23.8172 57.377C23.7611 57.4217 23.7518 57.5224 23.8201 57.5662C23.829 57.6856 23.8481 57.7957 23.8634 57.8645C23.8938 57.9987 23.9553 58.125 24.0418 58.2258C24.0968 58.3039 24.1632 58.3737 24.2423 58.4293C24.4252 58.5571 24.7304 58.6244 24.8891 58.4224C25.0769 58.183 24.8651 57.8321 24.7417 57.6153C24.665 57.4807 24.5525 57.2718 24.403 57.1671C24.3023 57.0442 24.1843 56.9547 24.0585 56.9729H24.059ZM24.4089 58.2066C24.3544 58.1904 24.3067 58.1629 24.2654 58.1265C24.3111 58.155 24.3583 58.1771 24.4065 58.1914C24.4075 58.1963 24.4084 58.2012 24.4094 58.2066H24.4089ZM24.6463 58.2926C24.6458 58.2582 24.6434 58.2248 24.639 58.1914C24.6734 58.1786 24.7004 58.1604 24.7201 58.1378C24.7299 58.2214 24.6979 58.271 24.6463 58.2926ZM24.3298 57.4831C24.3893 57.5726 24.4409 57.6679 24.4841 57.7662C24.4866 57.7716 24.4895 57.778 24.493 57.7844C24.4006 57.6399 24.2708 57.5205 24.1155 57.4389C24.1396 57.3622 24.205 57.3588 24.2723 57.3932C24.2993 57.434 24.3215 57.4708 24.3298 57.4836V57.4831Z" fill="#76AAAF"/>
<path d="M23.5187 53.0296C23.5108 53.0316 23.5039 53.034 23.4965 53.037C23.5034 52.9864 23.5132 52.9357 23.525 52.8851C23.5595 52.7411 23.3368 52.6816 23.3019 52.8266C23.1869 53.3059 23.2636 53.8873 23.5993 54.2692C23.7216 54.4083 23.9237 54.5007 24.0888 54.3705C24.2486 54.2442 24.2392 53.995 24.1935 53.8126C24.2343 53.6927 24.1842 53.5383 24.1198 53.4282C24.0844 53.3678 24.0426 53.3073 23.9954 53.2523C23.9605 53.1869 23.9207 53.1279 23.8745 53.0812C23.7841 52.9893 23.6145 52.9289 23.5177 53.0291L23.5187 53.0296ZM23.9915 54.0117C24.0151 54.1316 23.9522 54.1778 23.8023 54.1498C23.7659 54.1139 23.7344 54.0736 23.7084 54.0294C23.6887 53.9989 23.671 53.9679 23.6538 53.9365C23.6691 53.9512 23.6843 53.9655 23.701 53.9792C23.7575 54.0269 23.8268 54.0097 23.8676 53.9689C23.907 53.9802 23.9477 53.9836 23.989 53.9763C23.99 53.9881 23.991 53.9999 23.991 54.0122L23.9915 54.0117ZM23.9138 53.702C23.8406 53.7364 23.7703 53.5614 23.7433 53.4872C23.7226 53.4307 23.7108 53.3742 23.7049 53.3167C23.7339 53.3344 23.7629 53.3545 23.791 53.3771C23.8485 53.502 23.8986 53.6588 23.9133 53.702H23.9138Z" fill="#76AAAF"/>
<path d="M21.1374 49.5098C21.1305 49.5123 21.1231 49.5147 21.1167 49.5177C21.0548 49.438 20.987 49.3628 20.9123 49.294C20.8464 49.2331 20.7461 49.2616 20.7191 49.3461C20.7162 49.356 20.7142 49.3658 20.7112 49.3756C20.6582 49.3805 20.611 49.4169 20.6154 49.4857C20.6311 49.7305 20.8675 51.0507 21.3242 50.774C21.3733 50.744 21.4072 50.7027 21.4308 50.6555C21.4549 50.6609 21.48 50.6629 21.5055 50.6614C21.6741 50.6496 21.7587 50.4899 21.7734 50.339C21.8014 50.0495 21.5168 49.3889 21.1374 49.5098ZM21.2146 50.5272C21.2146 50.5272 21.2141 50.5272 21.2136 50.5277C21.1856 50.54 21.1453 50.4854 21.1045 50.4098C21.1384 50.4486 21.1747 50.4899 21.2146 50.5267V50.5272ZM20.9211 49.64C20.9324 49.6538 20.9432 49.6681 20.9541 49.6823C20.9477 49.6961 20.9418 49.7103 20.9373 49.7251C20.93 49.6971 20.9246 49.669 20.9211 49.6405V49.64ZM21.4475 49.963C21.4942 50.0446 21.5719 50.2063 21.5468 50.3056C21.5272 50.3832 21.5006 50.4127 21.4716 50.4161C21.4692 50.3586 21.4608 50.3006 21.45 50.2466C21.4657 50.2043 21.4593 50.1547 21.42 50.1198C21.4185 50.1139 21.4171 50.108 21.4151 50.1026C21.3802 49.9792 21.3315 49.8627 21.2711 49.7526C21.3492 49.7949 21.419 49.9133 21.4475 49.9635V49.963Z" fill="#76AAAF"/>
<path d="M10.8586 46.612C11.0271 46.6002 11.1117 46.4405 11.1264 46.2896C11.1544 46.0001 10.8699 45.3395 10.4904 45.4604C10.483 45.4629 10.4762 45.4653 10.4698 45.4683C10.4078 45.3887 10.34 45.3139 10.2653 45.2446C10.1994 45.1837 10.0992 45.2122 10.0721 45.2967C10.0692 45.3066 10.0672 45.3164 10.0643 45.3262C10.0112 45.3312 9.964 45.3675 9.96843 45.4363C9.98416 45.6811 10.2206 47.0013 10.6772 46.7246C10.7268 46.6946 10.7607 46.6533 10.7838 46.6061C10.8079 46.6115 10.833 46.6135 10.8586 46.612ZM10.2741 45.5907C10.2855 45.6044 10.2963 45.6187 10.3071 45.6329C10.3007 45.6467 10.2948 45.661 10.2904 45.6757C10.283 45.6477 10.2776 45.6197 10.2741 45.5907ZM10.803 46.1972C10.8187 46.1549 10.8128 46.1053 10.773 46.0704C10.7716 46.0645 10.7701 46.0586 10.7681 46.0532C10.7332 45.9298 10.6846 45.8133 10.6241 45.7032C10.7027 45.7455 10.772 45.864 10.8006 45.9136C10.8468 45.9952 10.9249 46.1569 10.8994 46.2562C10.8792 46.3338 10.8531 46.3633 10.8241 46.3668C10.8217 46.3093 10.8133 46.2513 10.8025 46.1972H10.803ZM10.5676 46.4778C10.5676 46.4778 10.5671 46.4778 10.5666 46.4783C10.5386 46.4906 10.4983 46.4361 10.458 46.3604C10.4919 46.3992 10.5283 46.4405 10.5681 46.4774L10.5676 46.4778Z" fill="#76AAAF"/>
<path d="M7.83424 49.2207C7.89666 49.2477 7.98858 49.23 8.00283 49.1494C8.01168 49.1008 8.01757 49.0502 8.022 48.9985C8.05444 48.9474 8.07066 48.8811 8.06869 48.8078C8.0623 48.6044 7.94041 48.0416 7.70104 47.8391C7.65926 47.7909 7.61355 47.7467 7.56342 47.7078C7.51574 47.671 7.46757 47.6489 7.42039 47.6405C7.35993 47.5938 7.29358 47.5643 7.22182 47.5658C7.10189 47.5682 7.03701 47.6415 7.00359 47.7359C6.94854 47.6611 6.79617 47.6838 6.79273 47.8042C6.77847 48.2647 7.01243 48.9219 7.52213 49.0339C7.61748 49.1086 7.72218 49.1721 7.83473 49.2207H7.83424ZM7.59586 48.7056C7.61503 48.6992 7.63469 48.6909 7.65484 48.6791C7.78263 48.6039 7.66909 48.4033 7.54081 48.4785C7.46708 48.5223 7.38795 48.1104 7.43513 48.0568C7.44103 48.0499 7.44693 48.046 7.45283 48.0411C7.46856 48.0671 7.48134 48.0897 7.48969 48.102C7.5703 48.2259 7.70694 48.4279 7.72021 48.5768C7.73053 48.6894 7.70546 48.7533 7.6627 48.7828C7.64009 48.7592 7.61748 48.7326 7.59586 48.7061V48.7056Z" fill="#76AAAF"/>
<path d="M13.1681 53.8802C13.1602 53.8822 13.1533 53.8846 13.146 53.8876C13.1528 53.837 13.1627 53.7863 13.1745 53.7357C13.2089 53.5917 12.9862 53.5322 12.9513 53.6772C12.8363 54.1564 12.913 54.7379 13.2487 55.1198C13.3711 55.2589 13.5731 55.3513 13.7382 55.2211C13.898 55.0947 13.8886 54.8455 13.8429 54.6632C13.8837 54.5433 13.8336 54.3889 13.7692 54.2788C13.7338 54.2184 13.692 54.1579 13.6448 54.1029C13.6099 54.038 13.5701 53.9785 13.5239 53.9318C13.4335 53.8399 13.2639 53.7799 13.1671 53.8797L13.1681 53.8802ZM13.6409 54.8623C13.6645 54.9822 13.6016 55.0284 13.4522 55.0004C13.4158 54.9645 13.3843 54.9242 13.3583 54.8799C13.3386 54.8495 13.3209 54.8185 13.3037 54.787C13.319 54.8018 13.3347 54.816 13.3509 54.8298C13.4074 54.8775 13.4767 54.8603 13.5175 54.8195C13.5569 54.8308 13.5977 54.8342 13.6389 54.8269C13.6399 54.8387 13.6409 54.8505 13.6409 54.8627V54.8623ZM13.5632 54.5521C13.49 54.5865 13.4197 54.4115 13.3927 54.3373C13.3725 54.2808 13.3603 54.2243 13.3544 54.1668C13.3834 54.1845 13.4124 54.2051 13.4404 54.2272C13.4979 54.3521 13.548 54.5089 13.5628 54.5521H13.5632Z" fill="#76AAAF"/>
<path d="M14.9978 49.7824C15.0391 49.6625 14.9885 49.5081 14.9241 49.398C14.8887 49.3376 14.8469 49.2771 14.7997 49.2221C14.7649 49.1572 14.725 49.0977 14.6788 49.051C14.5884 48.9591 14.4188 48.8987 14.322 48.9989C14.3141 49.0009 14.3073 49.0033 14.2999 49.0063C14.3068 48.9557 14.3161 48.905 14.3284 48.8549C14.3628 48.7109 14.1401 48.6514 14.1052 48.7964C13.9902 49.2756 14.0669 49.8571 14.4026 50.239C14.525 50.3781 14.727 50.4705 14.8922 50.3403C15.0519 50.2139 15.0426 49.9647 14.9968 49.7824H14.9978ZM14.7948 49.9815C14.8184 50.1014 14.7555 50.1476 14.6056 50.1196C14.5692 50.0837 14.5378 50.0434 14.5117 49.9991C14.4921 49.9687 14.4744 49.9377 14.4572 49.9063C14.4724 49.921 14.4881 49.9353 14.5044 49.949C14.5609 49.9967 14.6302 49.9795 14.671 49.9387C14.7103 49.95 14.7511 49.9529 14.7924 49.9461C14.7934 49.9579 14.7943 49.9697 14.7943 49.9819L14.7948 49.9815ZM14.5466 49.4565C14.526 49.4 14.5142 49.3435 14.5083 49.286C14.5373 49.3037 14.5663 49.3238 14.5943 49.3464C14.6518 49.4713 14.7019 49.6281 14.7167 49.6713C14.6434 49.7057 14.5732 49.5307 14.5461 49.4565H14.5466Z" fill="#76AAAF"/>
<path d="M13.6426 45.4574C13.6347 45.4594 13.6278 45.4618 13.6204 45.4648C13.6273 45.4142 13.6371 45.3635 13.6489 45.3129C13.6834 45.1689 13.4607 45.1094 13.4258 45.2544C13.3108 45.7336 13.3875 46.3151 13.7232 46.697C13.8456 46.8361 14.0476 46.9285 14.2127 46.7983C14.3725 46.6719 14.3631 46.4228 14.3174 46.2404C14.3582 46.1205 14.3081 45.9661 14.2437 45.856C14.2083 45.7956 14.1665 45.7351 14.1193 45.6801C14.0844 45.6152 14.0446 45.5557 13.9984 45.509C13.908 45.4171 13.7384 45.3567 13.6416 45.4569L13.6426 45.4574ZM14.1154 46.44C14.139 46.5599 14.0761 46.6061 13.9267 46.5781C13.8903 46.5422 13.8588 46.5019 13.8328 46.4576C13.8131 46.4272 13.7954 46.3962 13.7782 46.3648C13.7935 46.3795 13.8092 46.3938 13.8254 46.4075C13.8819 46.4552 13.9512 46.438 13.992 46.3972C14.0313 46.4085 14.0721 46.4119 14.1134 46.4046C14.1144 46.4164 14.1154 46.4282 14.1154 46.4404V46.44ZM14.0377 46.1298C13.9645 46.1642 13.8942 45.9892 13.8672 45.915C13.8465 45.8585 13.8347 45.802 13.8288 45.7445C13.8578 45.7622 13.8868 45.7828 13.9149 45.8049C13.9724 45.9293 14.0225 46.0866 14.0372 46.1298H14.0377Z" fill="#76AAAF"/>
<path d="M11.4228 51.1895C11.4508 50.9 11.1662 50.2394 10.7868 50.3603C10.7799 50.3628 10.7725 50.3652 10.7662 50.3682C10.7042 50.2886 10.6364 50.2139 10.5617 50.1445C10.4958 50.0836 10.3956 50.1121 10.3685 50.1966C10.3656 50.2065 10.3636 50.2163 10.3607 50.2261C10.3076 50.2311 10.2604 50.2674 10.2648 50.3362C10.2805 50.581 10.517 51.9012 10.9736 51.6245C11.0232 51.5945 11.0571 51.5532 11.0802 51.506C11.1043 51.5114 11.1294 51.5134 11.1549 51.5119C11.3235 51.5001 11.4081 51.3404 11.4228 51.1895ZM10.864 51.3778C10.864 51.3778 10.8635 51.3778 10.863 51.3782C10.835 51.3905 10.7947 51.336 10.7539 51.2603C10.7878 51.2991 10.8242 51.3404 10.864 51.3773V51.3778ZM10.5705 50.4906C10.5818 50.5043 10.5927 50.5186 10.6035 50.5328C10.5971 50.5466 10.5912 50.5609 10.5868 50.5756C10.5794 50.5476 10.574 50.5196 10.5705 50.4911V50.4906ZM11.0994 51.0971C11.1151 51.0548 11.1092 51.0052 11.0694 50.9703C11.0679 50.9644 11.0665 50.9585 11.0645 50.9531C11.0296 50.8297 10.9809 50.7132 10.9205 50.6031C10.9991 50.6454 11.0684 50.7639 11.0969 50.814C11.1436 50.8956 11.2213 51.0573 11.1957 51.1566C11.1756 51.2342 11.1495 51.2637 11.1205 51.2672C11.1181 51.2097 11.1097 51.1517 11.0989 51.0976L11.0994 51.0971Z" fill="#76AAAF"/>
</svg>
