<svg width="59" height="59" viewBox="0 0 59 59" fill="none" xmlns="http://www.w3.org/2000/svg">
<mask id="mask0_381_361" style="mask-type:luminance" maskUnits="userSpaceOnUse" x="0" y="4" width="37" height="55">
<path d="M33.7313 4.47559H2.31034C1.03437 4.47559 0 5.50996 0 6.78593V56.6897C0 57.9656 1.03437 59 2.31034 59H33.7313C35.0073 59 36.0417 57.9656 36.0417 56.6897V6.78593C36.0417 5.50996 35.0073 4.47559 33.7313 4.47559Z" fill="white"/>
</mask>
<g mask="url(#mask0_381_361)">
<path d="M33.7313 4.47559H2.31034C1.03437 4.47559 0 5.50996 0 6.78593V56.6897C0 57.9656 1.03437 59 2.31034 59H33.7313C35.0073 59 36.0417 57.9656 36.0417 56.6897V6.78593C36.0417 5.50996 35.0073 4.47559 33.7313 4.47559Z" fill="#F1A17F"/>
<path d="M40.1075 -3.00421H-8.87183V8.45494H40.1075V-3.00421Z" fill="#76AAAF"/>
<path d="M8.11075 28.4604C8.11075 28.4604 4.62045 26.0008 5.11907 21.7527C5.61768 17.5047 8.8088 15.7156 8.8088 15.7156C8.8088 15.7156 8.70908 10.7964 13.8947 11.0203C19.0802 11.2436 23.3683 13.7033 27.1578 12.3621C30.9472 11.0203 31.9445 17.7286 30.2492 19.2937C28.5539 20.8588 34.3378 23.989 30.0497 28.1254C25.7617 32.2618 8.11134 28.461 8.11134 28.461L8.11075 28.4604Z" fill="#8E4C3D"/>
<path d="M32.8241 48.7728C27.0139 47.2387 19.7897 45.9549 18.3566 45.7059V45.6611C18.3566 45.6611 18.3094 45.6694 18.2276 45.6832C18.1458 45.6688 18.0986 45.6611 18.0986 45.6611V45.7059C16.6648 45.9555 9.44062 47.2387 3.63103 48.7728C-2.84915 50.4842 -6.69116 59.3517 -6.69116 59.3517H43.1463C43.1463 59.3517 39.3049 50.4842 32.8241 48.7728Z" fill="#76AAAF"/>
<path d="M13.4385 36.8783C13.2791 38.398 13.1202 39.9177 12.9608 41.4375C12.836 42.6264 12.7118 43.8159 12.587 45.0048C12.535 45.4992 12.4831 45.9943 12.4317 46.4887C12.3631 47.145 12.3398 47.3313 12.8766 47.8018C14.3635 49.1054 16.3448 49.8381 18.3237 49.7933C19.9324 49.7569 21.5196 49.2063 22.8226 48.2664C23.412 47.8412 24.0641 47.4352 24.0354 46.6983C24.0157 46.2062 23.8945 45.6969 23.8264 45.209C23.4986 42.8736 23.1701 40.5388 22.8423 38.2034C22.7802 37.7621 22.7181 37.3202 22.656 36.8789" fill="#FCDBD5"/>
<path d="M22.6556 36.8783H13.4387L13.0369 40.7161L13.6274 41.3342C14.4276 42.172 15.3902 42.8533 16.4782 43.2522C18.9032 44.1401 21.4751 43.7126 23.4194 42.3099L22.6562 36.8783H22.6556Z" fill="#F2B9B0"/>
<path d="M30.2105 28.9489C30.0654 28.206 29.6665 27.4429 28.9601 27.1694C28.0972 26.8356 27.0946 27.3838 26.605 28.1684C26.5668 28.2293 26.5017 22.1224 26.5017 22.1224C26.5017 20.4737 25.1653 19.1367 23.516 19.1367H12.8241C11.1754 19.1367 9.83842 20.4731 9.83842 22.1224V27.6113C9.31532 26.9323 8.41185 26.494 7.62064 26.8004C6.91481 27.0739 6.51533 27.837 6.37022 28.5799C6.11405 29.8912 6.48666 31.3112 7.35371 32.3281C8.00639 33.0937 8.92957 33.6185 9.91605 33.812C10.0815 34.74 10.5138 35.6058 11.173 36.2967L13.6565 38.8967C14.3194 39.5906 15.116 40.1549 16.0165 40.4845C18.4014 41.3581 20.9608 40.6989 22.6137 38.9683L25.1659 36.2961C25.7254 35.7103 26.1201 34.9967 26.3285 34.2276C27.4386 34.0969 28.5003 33.5487 29.2264 32.6966C30.0935 31.6796 30.4655 30.2596 30.2099 28.9483L30.2105 28.9489Z" fill="#FCDBD5"/>
<path d="M9.8385 27.6113C9.82298 27.434 11.3272 26.0283 11.5374 25.8205C12.1327 25.2329 12.6797 24.5957 13.1538 23.906C14.1224 22.498 14.5595 21.0015 15.0713 19.4018C15.6827 19.7069 16.1634 20.9783 16.6997 21.5217C17.3947 22.2263 18.2325 22.7906 19.1521 23.1572C20.8988 23.8535 23.0568 23.9586 24.2022 25.4497C24.5772 25.9381 24.7951 26.5281 25.1331 27.0422C25.4711 27.5564 25.9966 28.0192 26.6122 28.0144C27.0063 26.4791 26.9848 24.8149 26.9669 23.2372C26.9609 22.7183 27.0672 18.5742 26.6301 18.4088C21.3932 16.4292 15.4355 16.4776 10.1413 18.2983C9.61816 21.2213 9.57815 24.6513 9.83791 27.6095L9.8385 27.6113Z" fill="#8E4C3D"/>
<mask id="mask1_381_361" style="mask-type:luminance" maskUnits="userSpaceOnUse" x="9" y="14" width="19" height="15">
<path d="M9.83854 27.6113C9.83854 27.6113 8.98045 16.8269 18.6464 16.6806C28.553 16.5307 26.6129 28.0161 26.6129 28.0161C26.6129 28.0161 29.8356 14.3248 18.6285 14.2245C7.06422 14.1212 9.83854 27.6119 9.83854 27.6119V27.6113Z" fill="white"/>
</mask>
<g mask="url(#mask1_381_361)">
<path d="M9.83854 27.6113C9.83854 27.6113 8.98045 16.8269 18.6464 16.6806C28.553 16.5307 26.6129 28.0161 26.6129 28.0161C26.6129 28.0161 29.8356 14.3248 18.6285 14.2245C7.06422 14.1212 9.83854 27.6119 9.83854 27.6119V27.6113Z" fill="#76AAAF"/>
<path d="M7.65544 24.6925C7.65544 24.6925 12.9837 22.8783 13.2668 19.3642C13.5504 15.85 16.8944 14.3762 19.5583 15.1131C22.2221 15.85 24.2632 14.4897 24.5462 14.0359C24.8298 13.5826 20.9753 10.8615 20.9753 10.8615C20.9753 10.8615 13.6066 11.9948 13.2101 12.2785C12.8136 12.5621 8.39231 17.2664 8.39231 17.2664C8.39231 17.2664 7.54198 23.8983 7.65544 24.6919V24.6925Z" fill="#FFC961"/>
</g>
<path d="M8.01644 47.6698L2.75024 45.095L8.01644 51.4468C8.01644 51.4468 4.8283 52.4971 5.29884 52.4971C5.76939 52.4971 18.1344 58.7188 18.1344 58.7188L8.01644 47.6698Z" fill="white"/>
<path d="M28.2574 47.6532L33.5236 45.0783L28.2574 51.4301C28.2574 51.4301 31.4455 52.4805 30.975 52.4805C30.5044 52.4805 18.1394 58.7021 18.1394 58.7021L28.2574 47.6532Z" fill="white"/>
<path d="M12.4319 46.4881L8.0166 47.6698L18.1393 58.7014L28.2573 47.6531L23.9161 46.4774L12.4319 46.4881Z" fill="#FCDBD5"/>
<path d="M21.0827 36.0579H15.2415C15.2415 36.0579 18.0468 33.0333 21.0827 36.0579Z" fill="#F4F4F4"/>
<path d="M8.94943 34.9257C9.39828 34.9257 9.76214 34.5618 9.76214 34.1129C9.76214 33.6641 9.39828 33.3002 8.94943 33.3002C8.50058 33.3002 8.13672 33.6641 8.13672 34.1129C8.13672 34.5618 8.50058 34.9257 8.94943 34.9257Z" fill="white"/>
<path d="M8.94934 38.1299C9.69896 38.1299 10.3066 37.5223 10.3066 36.7726C10.3066 36.023 9.69896 35.4153 8.94934 35.4153C8.19973 35.4153 7.59204 36.023 7.59204 36.7726C7.59204 37.5223 8.19973 38.1299 8.94934 38.1299Z" fill="#FFC961"/>
<path d="M8.94928 35.4099C9.08186 35.4099 9.18933 35.3024 9.18933 35.1699C9.18933 35.0373 9.08186 34.9298 8.94928 34.9298C8.8167 34.9298 8.70923 35.0373 8.70923 35.1699C8.70923 35.3024 8.8167 35.4099 8.94928 35.4099Z" fill="white"/>
<path d="M26.9968 35.4081C27.4456 35.4081 27.8095 35.0443 27.8095 34.5954C27.8095 34.1466 27.4456 33.7827 26.9968 33.7827C26.5479 33.7827 26.1841 34.1466 26.1841 34.5954C26.1841 35.0443 26.5479 35.4081 26.9968 35.4081Z" fill="white"/>
<path d="M26.9967 38.6124C27.7463 38.6124 28.354 38.0048 28.354 37.2551C28.354 36.5055 27.7463 35.8978 26.9967 35.8978C26.2471 35.8978 25.6394 36.5055 25.6394 37.2551C25.6394 38.0048 26.2471 38.6124 26.9967 38.6124Z" fill="#FFC961"/>
<path d="M26.9966 35.893C27.1292 35.893 27.2367 35.7855 27.2367 35.653C27.2367 35.5204 27.1292 35.4129 26.9966 35.4129C26.8641 35.4129 26.7566 35.5204 26.7566 35.653C26.7566 35.7855 26.8641 35.893 26.9966 35.893Z" fill="white"/>
</g>
<path d="M46.4044 15.6917C53.2552 15.6917 58.8089 12.179 58.8089 7.84585C58.8089 3.51271 53.2552 0 46.4044 0C39.5537 0 34 3.51271 34 7.84585C34 12.179 39.5537 15.6917 46.4044 15.6917Z" fill="#F4EBE7"/>
<path d="M43.5214 13.9212L41.6082 17.7477L46.3919 14.7906L43.5214 13.9212Z" fill="#F4EBE7"/>
<mask id="mask2_381_361" style="mask-type:luminance" maskUnits="userSpaceOnUse" x="40" y="2" width="12" height="11">
<path d="M46.4086 4.04327C46.6361 3.6593 46.9156 3.34819 47.2643 3.09918C48.4771 2.23452 50.1658 2.43098 51.1392 3.55898C51.8414 4.37349 52.0015 5.31518 51.7566 6.34047C51.5954 7.01345 51.2485 7.59507 50.837 8.14085C50.2112 8.97207 49.4773 9.70357 48.7028 10.3927C47.9642 11.0507 47.2046 11.6861 46.454 12.331C46.4397 12.3429 46.4241 12.3537 46.4015 12.371C46.1733 12.1763 45.9452 11.9841 45.7189 11.7894C44.8961 11.0818 44.0547 10.3939 43.2886 9.62296C42.6138 8.94401 41.9647 8.24416 41.4864 7.40637C41.1377 6.79549 40.9394 6.14401 40.9442 5.43401C40.9519 4.23196 41.7676 3.09978 42.9082 2.72179C44.2344 2.28229 45.612 2.77912 46.3513 3.96325C46.365 3.98534 46.3812 4.00565 46.408 4.04267L46.4086 4.04327Z" fill="white"/>
</mask>
<g mask="url(#mask2_381_361)">
<path d="M52.3071 2.51819H40.0657V5.0238H52.3071V2.51819Z" fill="#76AAAF"/>
<path d="M52.3071 4.96765H40.0657V7.47326H52.3071V4.96765Z" fill="#F1A17F"/>
<path d="M52.3071 7.41711H40.0657V9.92272H52.3071V7.41711Z" fill="#FFC961"/>
<path d="M52.3071 9.86603H40.0657V12.3716H52.3071V9.86603Z" fill="#F2858C"/>
</g>
</svg>
