<svg width="48" height="59" viewBox="0 0 48 59" fill="none" xmlns="http://www.w3.org/2000/svg">
<path d="M24.3265 46.4404C37.1507 46.4404 47.5467 36.0444 47.5467 23.2202C47.5467 10.396 37.1507 0 24.3265 0C11.5024 0 1.10632 10.396 1.10632 23.2202C1.10632 36.0444 11.5024 46.4404 24.3265 46.4404Z" fill="#F4EBE7"/>
<path d="M24.3266 38.8961C32.9842 38.8961 40.0025 31.8778 40.0025 23.2202C40.0025 14.5627 32.9842 7.54434 24.3266 7.54434C15.6691 7.54434 8.65076 14.5627 8.65076 23.2202C8.65076 31.8778 15.6691 38.8961 24.3266 38.8961Z" fill="#FECA71"/>
<path d="M24.3266 22.1749C26.5386 22.1749 28.3319 20.3817 28.3319 18.1696C28.3319 15.9576 26.5386 14.1643 24.3266 14.1643C22.1145 14.1643 20.3213 15.9576 20.3213 18.1696C20.3213 20.3817 22.1145 22.1749 24.3266 22.1749Z" fill="white"/>
<path d="M16.9341 25.8834C16.9341 22.3539 20.2438 23.0872 24.3266 23.0872C28.4094 23.0872 31.7191 22.3532 31.7191 25.8834C31.7191 29.4137 28.4094 32.2748 24.3266 32.2748C20.2438 32.2748 16.9341 29.413 16.9341 25.8834Z" fill="white"/>
<path d="M4.54522 44.8092H3.93848V44.2018H4.54522V44.8092ZM4.54522 42.076H3.93848V39.9495H4.54522V42.076ZM4.54522 37.8237H3.93848V35.6973H4.54522V37.8237ZM4.54522 33.5714H3.93848V31.9087H5.00958V32.5161H4.54522V33.5708V33.5714ZM9.26185 32.5167H7.1354V31.9094H9.26185V32.5167Z" fill="#161627"/>
<path d="M44.1426 45.5886H43.5359V44.2012H44.1426V45.5886ZM44.1426 42.0747H43.5359V39.9483H44.1426V42.0747ZM44.1426 37.8224H43.5359V35.696H44.1426V37.8224ZM44.1426 33.5702H43.5359V32.5155H43.0709V31.9081H44.1426V33.5702ZM40.9444 32.5155H38.818V31.9081H40.9444V32.5155Z" fill="#161627"/>
<path d="M24.1785 42.3582H23.5718V40.2318H24.1785V42.3582Z" fill="#161627"/>
<path d="M4.40216 46.8796L6.02897 44.5194C6.11781 44.3902 6.02582 44.2144 5.86893 44.2144H2.61468C2.45779 44.2144 2.36518 44.3902 2.45464 44.5194L4.08146 46.8796C4.15895 46.9917 4.32466 46.9917 4.40216 46.8796Z" fill="#161627"/>
<path d="M24.2005 46.8796L25.8273 44.5194C25.9161 44.3902 25.8241 44.2144 25.6673 44.2144H22.4136C22.2567 44.2144 22.1641 44.3902 22.2536 44.5194L23.8804 46.8796C23.9579 46.9917 24.1236 46.9917 24.2011 46.8796H24.2005Z" fill="#161627"/>
<path d="M43.9989 46.8796L45.6258 44.5194C45.7146 44.3902 45.6226 44.2144 45.4657 44.2144H42.2121C42.0552 44.2144 41.9626 44.3902 42.0521 44.5194L43.6789 46.8796C43.7564 46.9917 43.9221 46.9917 43.9996 46.8796H43.9989Z" fill="#161627"/>
<path d="M4.12248 53.3673C5.35604 53.3673 6.35604 52.3673 6.35604 51.1337C6.35604 49.9002 5.35604 48.9002 4.12248 48.9002C2.88891 48.9002 1.88892 49.9002 1.88892 51.1337C1.88892 52.3673 2.88891 53.3673 4.12248 53.3673Z" fill="#F4EBE7"/>
<path d="M0 55.4358C0 53.4674 1.84607 53.8764 4.12248 53.8764C6.39888 53.8764 8.24495 53.4674 8.24495 55.4358C8.24495 57.4041 6.39888 59 4.12248 59C1.84607 59 0 57.4047 0 55.4358Z" fill="#F4EBE7"/>
<path d="M43.6404 53.3673C44.874 53.3673 45.874 52.3673 45.874 51.1337C45.874 49.9002 44.874 48.9002 43.6404 48.9002C42.4069 48.9002 41.4069 49.9002 41.4069 51.1337C41.4069 52.3673 42.4069 53.3673 43.6404 53.3673Z" fill="#F1A17F"/>
<path d="M39.5179 55.4358C39.5179 53.4674 41.364 53.8764 43.6404 53.8764C45.9168 53.8764 47.7629 53.4674 47.7629 55.4358C47.7629 57.4041 45.9168 59 43.6404 59C41.364 59 39.5179 57.4041 39.5179 55.4358Z" fill="#F1A17F"/>
<path d="M23.8818 53.3673C25.1153 53.3673 26.1153 52.3673 26.1153 51.1337C26.1153 49.9002 25.1153 48.9002 23.8818 48.9002C22.6482 48.9002 21.6482 49.9002 21.6482 51.1337C21.6482 52.3673 22.6482 53.3673 23.8818 53.3673Z" fill="#76AAAF"/>
<path d="M19.7587 55.4358C19.7587 53.4674 21.6047 53.8764 23.8811 53.8764C26.1575 53.8764 28.0036 53.4674 28.0036 55.4358C28.0036 57.4041 26.1575 59 23.8811 59C21.6047 59 19.7587 57.4041 19.7587 55.4358Z" fill="#76AAAF"/>
</svg>
